<svg width="102" height="44" viewBox="0 0 102 44" fill="none" xmlns="http://www.w3.org/2000/svg">
<path d="M19.0962 42.367V33.725H2.16016V26.823L21.5902 1.883H26.8682V26.765H31.9722V33.725H26.8682V42.367H19.0962ZM9.93216 26.765H19.9662V13.657L9.93216 26.765Z" fill="#054EDB"/>
<path d="M66.9049 18.007C66.9049 21.4097 66.2476 24.445 64.9329 27.113C63.6569 29.7423 61.8783 31.811 59.5969 33.319C57.3543 34.827 54.8023 35.581 51.9409 35.581C49.0796 35.581 46.5083 34.827 44.2269 33.319C41.9843 31.811 40.2056 29.7423 38.8909 27.113C37.6149 24.445 36.9769 21.4097 36.9769 18.007C36.9769 14.6043 37.6149 11.5883 38.8909 8.959C40.2056 6.291 41.9843 4.203 44.2269 2.695C46.5083 1.14833 49.0796 0.375 51.9409 0.375C54.8023 0.375 57.3543 1.14833 59.5969 2.695C61.8783 4.203 63.6569 6.291 64.9329 8.959C66.2476 11.5883 66.9049 14.6043 66.9049 18.007ZM59.0749 18.007C59.0749 14.9137 58.3983 12.4003 57.0449 10.467C55.7303 8.495 54.0289 7.509 51.9409 7.509C49.7756 7.509 48.0356 8.495 46.7209 10.467C45.4063 12.4003 44.7489 14.9137 44.7489 18.007C44.7489 21.1003 45.4063 23.6137 46.7209 25.547C48.0356 27.4803 49.7756 28.447 51.9409 28.447C54.0289 28.447 55.7303 27.4803 57.0449 25.547C58.3983 23.6137 59.0749 21.1003 59.0749 18.007Z" fill="#054EDB"/>
<path d="M87.8579 42.367V33.725H70.9219V26.823L90.3519 1.883H95.6299V26.765H100.734V33.725H95.6299V42.367H87.8579ZM78.6939 26.765H88.7279V13.657L78.6939 26.765Z" fill="#054EDB"/>
</svg>
