<svg width="26" height="26" viewBox="0 0 26 26" fill="none" xmlns="http://www.w3.org/2000/svg">
<path fill-rule="evenodd" clip-rule="evenodd" d="M11.9087 7.61719H7.06017L6.04434 3.04688H0V4.57031H4.8229L7.53055 16.7578H6.95703C5.69695 16.7578 4.67187 17.7829 4.67187 19.043C4.67187 20.3031 5.69695 21.3281 6.95703 21.3281H7.85906C7.77369 21.5676 7.71875 21.8215 7.71875 22.0898C7.71875 23.3499 8.74382 24.375 10.0039 24.375C11.264 24.375 12.2891 23.3499 12.2891 22.0898C12.2891 21.8215 12.2341 21.5676 12.1488 21.3281H15.4762C15.3909 21.5676 15.3359 21.8215 15.3359 22.0898C15.3359 23.3499 16.361 24.375 17.6211 24.375C18.8812 24.375 19.9062 23.3499 19.9062 22.0898C19.9062 21.8215 19.8513 21.5676 19.7659 21.3281H21.4297V19.8047H6.95703C6.53677 19.8047 6.19531 19.4632 6.19531 19.043C6.19531 18.6227 6.53677 18.2813 6.95703 18.2813H21.2571L22.1931 14.6715C21.6581 14.8755 21.094 15.0207 20.5088 15.0991L20.0788 16.7578H17.3059L17.4615 14.8918C16.944 14.7483 16.4488 14.5514 15.9822 14.3073L15.7779 16.7578H13.3704L13.1164 13.7109H15.0235C14.4341 13.2804 13.9091 12.7668 13.4658 12.1875H12.9896L12.9217 11.3724C12.2826 10.2667 11.9147 8.98469 11.9087 7.61719ZM9.09172 16.7578H11.8424L11.5885 13.7109H8.4145L9.09172 16.7578ZM11.2077 9.14062H7.39873L8.076 12.1875H11.4616L11.2077 9.14062ZM10.0039 22.8516C10.4242 22.8516 10.7656 22.5101 10.7656 22.0898C10.7656 21.6696 10.4242 21.3281 10.0039 21.3281C9.58364 21.3281 9.24219 21.6696 9.24219 22.0898C9.24219 22.5101 9.58364 22.8516 10.0039 22.8516ZM17.6211 22.8516C18.0414 22.8516 18.3828 22.5101 18.3828 22.0898C18.3828 21.6696 18.0414 21.3281 17.6211 21.3281C17.2008 21.3281 16.8594 21.6696 16.8594 22.0898C16.8594 22.5101 17.2008 22.8516 17.6211 22.8516Z" fill="#1D9F22"/>
<path fill-rule="evenodd" clip-rule="evenodd" d="M19.4922 12.5668C22.2444 12.5668 24.4755 10.3357 24.4755 7.5835C24.4755 4.83128 22.2444 2.60016 19.4922 2.60016C16.74 2.60016 14.5089 4.83128 14.5089 7.5835C14.5089 10.3357 16.74 12.5668 19.4922 12.5668ZM19.4922 14.0835C23.082 14.0835 25.9922 11.1733 25.9922 7.5835C25.9922 3.99365 23.082 1.0835 19.4922 1.0835C15.9023 1.0835 12.9922 3.99365 12.9922 7.5835C12.9922 11.1733 15.9023 14.0835 19.4922 14.0835Z" fill="#1D9F22"/>
<path fill-rule="evenodd" clip-rule="evenodd" d="M18.7333 10.8335L18.7333 4.3335L20.25 4.3335L20.25 10.8335L18.7333 10.8335Z" fill="#1D9F22"/>
<path fill-rule="evenodd" clip-rule="evenodd" d="M16.2422 6.84075L22.7422 6.84076L22.7422 8.35742L16.2422 8.35742L16.2422 6.84075Z" fill="#1D9F22"/>
</svg>
