<svg width="71" height="28" viewBox="0 0 71 28" fill="none" xmlns="http://www.w3.org/2000/svg">
<path d="M0.75703 11.3775C-0.763786 13.9808 0.209536 18.0072 1.88678 20.4283C2.75582 21.6432 3.57271 22.7279 4.73722 22.7279H4.80675C5.26546 22.699 5.71414 22.5811 6.12769 22.3808C6.61423 22.1402 7.14901 22.0126 7.69195 22.0077C8.21054 22.0134 8.72127 22.135 9.1867 22.3634C9.62831 22.5882 10.1163 22.707 10.6119 22.7106C11.9242 22.7106 12.7324 21.513 13.4363 20.4717C13.9693 19.6936 14.3878 18.8432 14.679 17.9465C14.691 17.9119 14.6896 17.874 14.6751 17.8403C14.6607 17.8066 14.6342 17.7795 14.6008 17.7643C13.9239 17.475 13.3472 16.9933 12.9424 16.3792C12.5375 15.7651 12.3225 15.0457 12.3239 14.3106C12.3327 13.6618 12.5053 13.0258 12.8259 12.4615C13.1464 11.8972 13.6045 11.4228 14.1576 11.0824C14.1907 11.0592 14.2152 11.0256 14.2271 10.987C14.2404 10.9506 14.2404 10.9106 14.2271 10.8742C13.85 10.3319 13.351 9.88546 12.77 9.57051C12.189 9.25556 11.5421 9.0809 10.8813 9.06055H10.5945C9.86644 9.1035 9.15297 9.28308 8.49147 9.58989C8.17235 9.73866 7.83244 9.83814 7.48339 9.88493C7.113 9.83435 6.75425 9.71983 6.42316 9.5465C5.84604 9.28025 5.2241 9.12426 4.58949 9.08658C3.8059 9.10073 3.03971 9.31969 2.36727 9.72165C1.69484 10.1236 1.13965 10.6945 0.75703 11.3775Z" fill="#181818"/>
<path d="M10.8558 4.78201C9.80876 4.87778 8.83984 5.37553 8.15305 6.17044C7.805 6.55351 7.5391 7.00363 7.37172 7.49311C7.20433 7.98259 7.139 8.50109 7.17973 9.01672C7.18346 9.04996 7.1984 9.08095 7.22208 9.1046C7.24577 9.12825 7.2768 9.14316 7.31008 9.14689H7.50127C7.99812 9.11972 8.48333 8.98635 8.92411 8.7558C9.3649 8.52525 9.75097 8.2029 10.0562 7.81053C10.7474 6.99908 11.0908 5.94851 11.0122 4.88615C11.0023 4.85335 10.9812 4.82503 10.9527 4.80603C10.9242 4.78703 10.8899 4.77854 10.8558 4.78201Z" fill="#181818"/>
<path d="M28.3775 9.18785V10.478H28.0665V9.47595H24.0048L23.9985 10.478H23.6875L23.6938 9.18785H23.935C24.2269 9.1628 24.43 8.92062 24.5443 8.46133C24.6627 8.00204 24.7347 7.35903 24.76 6.5323L24.8045 5.0918H27.6921V9.18785H28.3775ZM25.0583 6.55736C25.0329 7.26717 24.9758 7.84755 24.887 8.29849C24.8023 8.74943 24.6564 9.04589 24.4491 9.18785H27.3684V5.3799H25.0964L25.0583 6.55736Z" fill="#181818"/>
<path d="M30.5132 9.501C30.2001 9.501 29.9167 9.43002 29.6628 9.28806C29.4132 9.14609 29.2164 8.94985 29.0726 8.69933C28.9287 8.44463 28.8568 8.15862 28.8568 7.84129C28.8568 7.52396 28.9287 7.24003 29.0726 6.98951C29.2164 6.73481 29.4132 6.53648 29.6628 6.39452C29.9167 6.25255 30.2001 6.18157 30.5132 6.18157C30.8263 6.18157 31.1077 6.25255 31.3573 6.39452C31.6111 6.53648 31.81 6.73481 31.9538 6.98951C32.0977 7.24003 32.1696 7.52396 32.1696 7.84129C32.1696 8.15862 32.0977 8.44463 31.9538 8.69933C31.81 8.94985 31.6111 9.14609 31.3573 9.28806C31.1077 9.43002 30.8263 9.501 30.5132 9.501ZM30.5132 9.21916C30.7671 9.21916 30.9934 9.16071 31.1923 9.0438C31.3954 8.92689 31.554 8.76405 31.6683 8.55528C31.7867 8.34651 31.846 8.10851 31.846 7.84129C31.846 7.57406 31.7867 7.33607 31.6683 7.1273C31.554 6.91853 31.3954 6.75569 31.1923 6.63878C30.9934 6.52187 30.7671 6.46341 30.5132 6.46341C30.2594 6.46341 30.0309 6.52187 29.8278 6.63878C29.629 6.75569 29.4703 6.91853 29.3518 7.1273C29.2376 7.33607 29.1805 7.57406 29.1805 7.84129C29.1805 8.10851 29.2376 8.34651 29.3518 8.55528C29.4703 8.76405 29.629 8.92689 29.8278 9.0438C30.0309 9.16071 30.2594 9.21916 30.5132 9.21916Z" fill="#181818"/>
<path d="M34.5421 9.501C34.2206 9.501 33.9329 9.43002 33.679 9.28806C33.4252 9.14609 33.2263 8.94985 33.0825 8.69933C32.9386 8.44463 32.8667 8.15862 32.8667 7.84129C32.8667 7.51978 32.9386 7.23377 33.0825 6.98325C33.2263 6.72855 33.4252 6.5323 33.679 6.39452C33.9329 6.25255 34.2206 6.18157 34.5421 6.18157C34.8087 6.18157 35.0498 6.23376 35.2656 6.33815C35.4856 6.43836 35.6633 6.58658 35.7987 6.78283L35.5639 6.95193C35.4454 6.78909 35.2973 6.668 35.1196 6.58867C34.9462 6.50516 34.7537 6.46341 34.5421 6.46341C34.284 6.46341 34.0513 6.52187 33.844 6.63878C33.6409 6.75151 33.4802 6.91226 33.3617 7.12103C33.2475 7.3298 33.1903 7.56989 33.1903 7.84129C33.1903 8.11269 33.2475 8.35277 33.3617 8.56154C33.4802 8.77031 33.6409 8.93315 33.844 9.05006C34.0513 9.1628 34.284 9.21916 34.5421 9.21916C34.7537 9.21916 34.9462 9.1795 35.1196 9.10016C35.2973 9.01666 35.4454 8.89348 35.5639 8.73064L35.7987 8.89975C35.6633 9.09599 35.4856 9.2463 35.2656 9.35069C35.0498 9.4509 34.8087 9.501 34.5421 9.501Z" fill="#181818"/>
<path d="M38.8762 6.48846H37.5815V9.47595H37.2642V6.48846H35.9696V6.20662H38.8762V6.48846Z" fill="#181818"/>
<path d="M42.259 6.20662L40.5582 9.92063C40.4313 10.2087 40.2832 10.4133 40.1139 10.5344C39.9489 10.6555 39.7522 10.716 39.5237 10.716C39.3714 10.716 39.2276 10.691 39.0922 10.6409C38.961 10.5908 38.8489 10.5177 38.7558 10.4217L38.9145 10.1837C39.0837 10.3549 39.2889 10.4405 39.5301 10.4405C39.6908 10.4405 39.8283 10.3966 39.9426 10.3089C40.0568 10.2213 40.1626 10.0709 40.2599 9.858L40.4376 9.46342L38.9462 6.20662H39.2826L40.609 9.13148L41.9353 6.20662H42.259Z" fill="#181818"/>
<path d="M45.9202 6.20662V9.47595H45.6029V6.48846H43.3436V9.47595H43.0263V6.20662H45.9202Z" fill="#181818"/>
<path d="M47.2902 6.20662H47.6076V7.69724H49.8542V6.20662H50.1715V9.47595H49.8542V7.97281H47.6076V9.47595H47.2902V6.20662Z" fill="#181818"/>
<path d="M52.8619 9.501C52.5488 9.501 52.2653 9.43002 52.0114 9.28806C51.7618 9.14609 51.5651 8.94985 51.4212 8.69933C51.2774 8.44463 51.2055 8.15862 51.2055 7.84129C51.2055 7.52396 51.2774 7.24003 51.4212 6.98951C51.5651 6.73481 51.7618 6.53648 52.0114 6.39452C52.2653 6.25255 52.5488 6.18157 52.8619 6.18157C53.1749 6.18157 53.4563 6.25255 53.7059 6.39452C53.9598 6.53648 54.1586 6.73481 54.3025 6.98951C54.4463 7.24003 54.5183 7.52396 54.5183 7.84129C54.5183 8.15862 54.4463 8.44463 54.3025 8.69933C54.1586 8.94985 53.9598 9.14609 53.7059 9.28806C53.4563 9.43002 53.1749 9.501 52.8619 9.501ZM52.8619 9.21916C53.1157 9.21916 53.3421 9.16071 53.5409 9.0438C53.744 8.92689 53.9027 8.76405 54.0169 8.55528C54.1354 8.34651 54.1946 8.10851 54.1946 7.84129C54.1946 7.57406 54.1354 7.33607 54.0169 7.1273C53.9027 6.91853 53.744 6.75569 53.5409 6.63878C53.3421 6.52187 53.1157 6.46341 52.8619 6.46341C52.608 6.46341 52.3795 6.52187 52.1764 6.63878C51.9776 6.75569 51.8189 6.91853 51.7005 7.1273C51.5862 7.33607 51.5291 7.57406 51.5291 7.84129C51.5291 8.10851 51.5862 8.34651 51.7005 8.55528C51.8189 8.76405 51.9776 8.92689 52.1764 9.0438C52.3795 9.16071 52.608 9.21916 52.8619 9.21916Z" fill="#181818"/>
<path d="M57.1817 6.20662H57.499V7.69724H59.7456V6.20662H60.0629V9.47595H59.7456V7.97281H57.499V9.47595H57.1817V6.20662Z" fill="#181818"/>
<path d="M62.5311 6.18157C62.9415 6.18157 63.2567 6.28596 63.4768 6.49473C63.6968 6.69932 63.8068 7.00203 63.8068 7.40287V9.47595H63.5021V8.89348C63.3964 9.08555 63.2419 9.23587 63.0389 9.34443C62.8358 9.44881 62.5925 9.501 62.309 9.501C61.9409 9.501 61.649 9.41541 61.4332 9.24422C61.2217 9.07302 61.1159 8.84755 61.1159 8.5678C61.1159 8.2964 61.2132 8.0772 61.4078 7.91018C61.6067 7.73899 61.9219 7.65339 62.3534 7.65339H63.4894V7.39035C63.4894 7.08554 63.4048 6.85381 63.2356 6.69514C63.0706 6.53648 62.8273 6.45715 62.5058 6.45715C62.2858 6.45715 62.0742 6.49473 61.8711 6.56988C61.6723 6.64504 61.503 6.74525 61.3634 6.87051L61.2048 6.64504C61.3698 6.4989 61.5686 6.38617 61.8013 6.30683C62.034 6.22333 62.2773 6.18157 62.5311 6.18157ZM62.3534 9.24422C62.6285 9.24422 62.8612 9.18158 63.0516 9.05632C63.2462 8.93106 63.3921 8.74943 63.4894 8.51144V7.89765H62.3598C62.034 7.89765 61.7971 7.95611 61.649 8.07302C61.5051 8.18993 61.4332 8.35068 61.4332 8.55528C61.4332 8.76822 61.5136 8.93733 61.6744 9.06259C61.8352 9.18367 62.0615 9.24422 62.3534 9.24422Z" fill="#181818"/>
<path d="M28.6921 18.7496H25.4616L24.7361 20.7357H23.6875L26.632 13.126H27.5217L30.4716 20.7357H29.4283L28.6921 18.7496ZM25.7688 17.9239H28.3903L27.0769 14.3647L25.7688 17.9239Z" fill="#181818"/>
<path d="M36.1965 17.9709C36.1965 18.8315 35.997 19.5249 35.598 20.051C35.1991 20.5771 34.6589 20.8402 33.9775 20.8402C33.2819 20.8402 32.7347 20.6224 32.3357 20.1869V22.9099H31.356V15.0807H32.251L32.2987 15.7079C32.6976 15.2201 33.2519 14.9762 33.9616 14.9762C34.6501 14.9762 35.1938 15.2323 35.5927 15.7444C35.9952 16.2566 36.1965 16.9692 36.1965 17.882V17.9709ZM35.2167 17.8611C35.2167 17.2235 35.079 16.72 34.8036 16.3507C34.5283 15.9814 34.1505 15.7967 33.6703 15.7967C33.0772 15.7967 32.6323 16.0563 32.3357 16.5754V19.2775C32.6288 19.7932 33.0772 20.051 33.6809 20.051C34.1505 20.051 34.523 19.8681 34.7983 19.5022C35.0773 19.1329 35.2167 18.5859 35.2167 17.8611Z" fill="#181818"/>
<path d="M42.2868 17.9709C42.2868 18.8315 42.0873 19.5249 41.6883 20.051C41.2894 20.5771 40.7492 20.8402 40.0678 20.8402C39.3723 20.8402 38.825 20.6224 38.4261 20.1869V22.9099H37.4463V15.0807H38.3413L38.389 15.7079C38.7879 15.2201 39.3422 14.9762 40.0519 14.9762C40.7404 14.9762 41.2841 15.2323 41.683 15.7444C42.0855 16.2566 42.2868 16.9692 42.2868 17.882V17.9709ZM41.307 17.8611C41.307 17.2235 41.1693 16.72 40.894 16.3507C40.6186 15.9814 40.2408 15.7967 39.7606 15.7967C39.1675 15.7967 38.7226 16.0563 38.4261 16.5754V19.2775C38.7191 19.7932 39.1675 20.051 39.7712 20.051C40.2408 20.051 40.6133 19.8681 40.8887 19.5022C41.1676 19.1329 41.307 18.5859 41.307 17.8611Z" fill="#181818"/>
<path d="M48.6525 17.3437C47.7804 17.0963 47.1449 16.7932 46.7459 16.4343C46.3505 16.072 46.1528 15.626 46.1528 15.0964C46.1528 14.4971 46.3946 14.0023 46.8783 13.6121C47.3656 13.2183 47.9975 13.0215 48.7743 13.0215C49.3039 13.0215 49.7752 13.1225 50.1883 13.3246C50.6049 13.5267 50.9262 13.8054 51.1522 14.1608C51.3816 14.5162 51.4964 14.9047 51.4964 15.3263H50.4743C50.4743 14.8664 50.326 14.5058 50.0294 14.2445C49.7328 13.9797 49.3145 13.8473 48.7743 13.8473C48.2729 13.8473 47.881 13.957 47.5986 14.1765C47.3197 14.3925 47.1802 14.6939 47.1802 15.0807C47.1802 15.3908 47.3126 15.6539 47.5774 15.8699C47.8457 16.0824 48.2994 16.2775 48.9385 16.4552C49.581 16.6329 50.0824 16.8298 50.4425 17.0458C50.8062 17.2584 51.0745 17.5075 51.2475 17.7932C51.424 18.0789 51.5123 18.4151 51.5123 18.8019C51.5123 19.4186 51.2687 19.9134 50.7814 20.2862C50.2942 20.6555 49.6428 20.8402 48.8272 20.8402C48.2976 20.8402 47.8034 20.7409 47.3444 20.5423C46.8854 20.3402 46.5306 20.0649 46.2799 19.7165C46.0328 19.3681 45.9092 18.9726 45.9092 18.5301H46.9313C46.9313 18.99 47.1025 19.3542 47.445 19.6224C47.791 19.8873 48.2518 20.0197 48.8272 20.0197C49.3639 20.0197 49.7752 19.9116 50.0612 19.6956C50.3472 19.4796 50.4902 19.1852 50.4902 18.8124C50.4902 18.4395 50.3578 18.1521 50.093 17.95C49.8282 17.7444 49.348 17.5423 48.6525 17.3437Z" fill="#181818"/>
<path d="M53.9961 13.7114V15.0807H55.0658V15.8281H53.9961V19.335C53.9961 19.5615 54.0437 19.7322 54.1391 19.8472C54.2344 19.9587 54.3968 20.0144 54.6263 20.0144C54.7393 20.0144 54.8946 19.9935 55.0923 19.9517V20.7357C54.8346 20.8054 54.5839 20.8402 54.3403 20.8402C53.9025 20.8402 53.5724 20.7095 53.35 20.4482C53.1275 20.1869 53.0163 19.8158 53.0163 19.335V15.8281H51.973V15.0807H53.0163V13.7114H53.9961Z" fill="#181818"/>
<path d="M55.8496 17.8559C55.8496 17.3019 55.9591 16.8037 56.178 16.3612C56.4004 15.9187 56.7076 15.5772 57.0995 15.3368C57.4949 15.0964 57.9451 14.9762 58.4499 14.9762C59.2302 14.9762 59.8604 15.2427 60.3406 15.7758C60.8243 16.3089 61.0661 17.0179 61.0661 17.903V17.9709C61.0661 18.5214 60.9584 19.0162 60.7431 19.4552C60.5312 19.8907 60.2258 20.2305 59.8269 20.4744C59.4314 20.7183 58.976 20.8402 58.4605 20.8402C57.6838 20.8402 57.0536 20.5737 56.5699 20.0406C56.0897 19.5075 55.8496 18.8019 55.8496 17.9239V17.8559ZM56.8347 17.9709C56.8347 18.5981 56.9812 19.1015 57.2742 19.4813C57.5708 19.8611 57.9662 20.051 58.4605 20.051C58.9583 20.051 59.3538 19.8594 59.6468 19.4761C59.9399 19.0894 60.0864 18.5493 60.0864 17.8559C60.0864 17.2357 59.9363 16.734 59.6362 16.3507C59.3396 15.964 58.9442 15.7706 58.4499 15.7706C57.9662 15.7706 57.5761 15.9605 57.2795 16.3403C56.983 16.72 56.8347 17.2636 56.8347 17.9709Z" fill="#181818"/>
<path d="M65.0645 15.9483C64.9163 15.9239 64.7556 15.9117 64.5826 15.9117C63.94 15.9117 63.504 16.1817 63.2745 16.7218V20.7357H62.2948V15.0807H63.248L63.2639 15.734C63.5852 15.2288 64.0407 14.9762 64.6303 14.9762C64.8209 14.9762 64.9657 15.0006 65.0645 15.0493V15.9483Z" fill="#181818"/>
<path d="M68.2421 20.8402C67.4654 20.8402 66.8334 20.5893 66.3462 20.0876C65.8589 19.5824 65.6153 18.9082 65.6153 18.065V17.8873C65.6153 17.3263 65.723 16.8263 65.9384 16.3873C66.1573 15.9448 66.4609 15.5998 66.8493 15.3525C67.2412 15.1016 67.6648 14.9762 68.1203 14.9762C68.8652 14.9762 69.4443 15.2183 69.8573 15.7026C70.2704 16.1869 70.477 16.8803 70.477 17.7827V18.1852H66.5951C66.6092 18.7427 66.7734 19.1939 67.0876 19.5388C67.4053 19.8803 67.8078 20.051 68.2951 20.051C68.6411 20.051 68.9341 19.9813 69.1742 19.842C69.4143 19.7026 69.6243 19.5179 69.8044 19.288L70.4028 19.7479C69.9227 20.4761 69.2024 20.8402 68.2421 20.8402ZM68.1203 15.7706C67.7249 15.7706 67.393 15.9134 67.1247 16.1991C66.8563 16.4814 66.6904 16.8786 66.6268 17.3908H69.4972V17.3176C69.469 16.8263 69.3348 16.4465 69.0947 16.1782C68.8547 15.9065 68.5298 15.7706 68.1203 15.7706Z" fill="#181818"/>
</svg>
