<svg width="24" height="24" viewBox="0 0 24 24" fill="none" xmlns="http://www.w3.org/2000/svg">
<path d="M18.7316 3.99219H17.1302V5.59359C17.1302 5.91387 16.8633 6.1274 16.5964 6.1274C16.3295 6.1274 16.0626 5.91387 16.0626 5.59359V3.99219H7.52174V5.59359C7.52174 5.91387 7.25484 6.1274 6.98794 6.1274C6.72104 6.1274 6.45413 5.91387 6.45413 5.59359V3.99219H4.85273C4.05203 3.99219 3.46484 4.68613 3.46484 5.59359V7.51528H20.5465V5.59359C20.5465 4.68613 19.5857 3.99219 18.7316 3.99219ZM3.46484 8.63626V18.4048C3.46484 19.3657 4.05203 20.0062 4.90611 20.0062H18.785C19.639 20.0062 20.5999 19.3123 20.5999 18.4048V8.63626H3.46484ZM8.21568 17.6041H6.93456C6.72104 17.6041 6.50751 17.444 6.50751 17.1771V15.8426C6.50751 15.6291 6.66766 15.4155 6.93456 15.4155H8.26906C8.48258 15.4155 8.6961 15.5757 8.6961 15.8426V17.1771C8.64272 17.444 8.48258 17.6041 8.21568 17.6041ZM8.21568 12.7999H6.93456C6.72104 12.7999 6.50751 12.6398 6.50751 12.3729V11.0384C6.50751 10.8249 6.66766 10.6113 6.93456 10.6113H8.26906C8.48258 10.6113 8.6961 10.7715 8.6961 11.0384V12.3729C8.64272 12.6398 8.48258 12.7999 8.21568 12.7999ZM12.4861 17.6041H11.1516C10.9381 17.6041 10.7245 17.444 10.7245 17.1771V15.8426C10.7245 15.6291 10.8847 15.4155 11.1516 15.4155H12.4861C12.6996 15.4155 12.9131 15.5757 12.9131 15.8426V17.1771C12.9131 17.444 12.753 17.6041 12.4861 17.6041ZM12.4861 12.7999H11.1516C10.9381 12.7999 10.7245 12.6398 10.7245 12.3729V11.0384C10.7245 10.8249 10.8847 10.6113 11.1516 10.6113H12.4861C12.6996 10.6113 12.9131 10.7715 12.9131 11.0384V12.3729C12.9131 12.6398 12.753 12.7999 12.4861 12.7999ZM16.7565 17.6041H15.422C15.2085 17.6041 14.995 17.444 14.995 17.1771V15.8426C14.995 15.6291 15.1551 15.4155 15.422 15.4155H16.7565C16.97 15.4155 17.1836 15.5757 17.1836 15.8426V17.1771C17.1836 17.444 17.0234 17.6041 16.7565 17.6041ZM16.7565 12.7999H15.422C15.2085 12.7999 14.995 12.6398 14.995 12.3729V11.0384C14.995 10.8249 15.1551 10.6113 15.422 10.6113H16.7565C16.97 10.6113 17.1836 10.7715 17.1836 11.0384V12.3729C17.1836 12.6398 17.0234 12.7999 16.7565 12.7999Z" fill="#8B96B1"/>
</svg>
