<svg width="17" height="16" viewBox="0 0 17 16" fill="none" xmlns="http://www.w3.org/2000/svg">
<path fill-rule="evenodd" clip-rule="evenodd" d="M5.64844 14.4259C5.64844 13.8226 6.13753 13.3335 6.74085 13.3335C7.34417 13.3335 7.83326 13.8226 7.83326 14.4259C7.83326 15.0292 7.34417 15.5183 6.74085 15.5183C6.13753 15.5183 5.64844 15.0292 5.64844 14.4259Z" fill="white"/>
<path fill-rule="evenodd" clip-rule="evenodd" d="M12.5 14.4268C12.5 13.823 12.9895 13.3335 13.5933 13.3335C14.1972 13.3335 14.6867 13.823 14.6867 14.4268C14.6867 15.0307 14.1972 15.5202 13.5933 15.5202C12.9895 15.5202 12.5 15.0307 12.5 14.4268Z" fill="white"/>
<path fill-rule="evenodd" clip-rule="evenodd" d="M4.91569 4.02597C4.92817 4.08829 4.98288 4.13314 5.04643 4.13314H15.8328C15.9918 4.13314 16.1424 4.20403 16.2437 4.3265C16.3451 4.44897 16.3865 4.61025 16.3567 4.76638L15.2892 10.3641C15.2038 10.7936 14.9701 11.1795 14.6289 11.4541C14.2893 11.7275 13.8649 11.8733 13.4291 11.8665L6.95858 11.8665L6.95649 11.8665C6.52077 11.8733 6.0963 11.7275 5.75674 11.4541C5.41562 11.1795 5.18187 10.7936 5.09644 10.3641L3.98287 4.79975L3.9815 4.79416C3.97789 4.77946 3.97501 4.76449 3.97265 4.74933L3.4171 1.97364C3.40462 1.91132 3.34991 1.86647 3.28636 1.86647H1.16615C0.871594 1.86647 0.632812 1.62769 0.632812 1.33314C0.632812 1.03859 0.871594 0.799805 1.16615 0.799805H3.83281C4.08701 0.799805 4.30589 0.97921 4.35577 1.22847L4.91569 4.02597ZM5.3133 5.1998C5.27335 5.1998 5.23551 5.21772 5.21018 5.24861C5.18486 5.27951 5.17472 5.32013 5.18256 5.35931L6.14263 10.1561C6.17924 10.3402 6.27941 10.5055 6.42561 10.6232C6.5042 10.6865 6.60224 10.7297 6.69062 10.7571C6.77905 10.7845 6.86995 10.7998 6.94004 10.7999L13.4328 10.7998L13.443 10.7999L13.4437 10.7999C13.6312 10.8033 13.8139 10.7408 13.96 10.6232C14.1056 10.506 14.2055 10.3416 14.2425 10.1585L15.158 5.35811C15.1654 5.31908 15.1551 5.27876 15.1297 5.24815C15.1044 5.21753 15.0667 5.1998 15.027 5.1998H5.3133Z" fill="black"/>
</svg>
