<svg width="20" height="20" viewBox="0 0 20 20" fill="none" xmlns="http://www.w3.org/2000/svg">
<path fill-rule="evenodd" clip-rule="evenodd" d="M6.4375 18.0323C6.4375 17.2781 7.04886 16.6667 7.80301 16.6667C8.55717 16.6667 9.16853 17.2781 9.16853 18.0323C9.16853 18.7864 8.55717 19.3978 7.80301 19.3978C7.04886 19.3978 6.4375 18.7864 6.4375 18.0323Z" fill="#8B96B1"/>
<path fill-rule="evenodd" clip-rule="evenodd" d="M15 18.0334C15 17.2786 15.6119 16.6667 16.3667 16.6667C17.1215 16.6667 17.7333 17.2786 17.7333 18.0334C17.7333 18.7882 17.1215 19.4001 16.3667 19.4001C15.6119 19.4001 15 18.7882 15 18.0334Z" fill="#8B96B1"/>
<path fill-rule="evenodd" clip-rule="evenodd" d="M5.52157 5.03271C5.53716 5.1106 5.60556 5.16667 5.68499 5.16667H19.168C19.3667 5.16667 19.555 5.25529 19.6816 5.40837C19.8083 5.56145 19.8601 5.76305 19.8228 5.95822L18.4885 12.9553C18.3817 13.4923 18.0895 13.9746 17.6631 14.3179C17.2386 14.6596 16.708 14.8419 16.1634 14.8333L8.07517 14.8333L8.07256 14.8334C7.52791 14.8419 6.99733 14.6596 6.57288 14.3179C6.14648 13.9746 5.8543 13.4922 5.7475 12.9553L4.35554 5.99993L4.35382 5.99294C4.34931 5.97457 4.34572 5.95586 4.34276 5.9369L3.64832 2.46729C3.63273 2.3894 3.56434 2.33333 3.4849 2.33333H0.834635C0.466446 2.33333 0.167969 2.03486 0.167969 1.66667C0.167969 1.29848 0.466446 1 0.834635 1H4.16797C4.48572 1 4.75931 1.22426 4.82167 1.53583L5.52157 5.03271ZM6.01858 6.5C5.96864 6.5 5.92133 6.52239 5.88968 6.56101C5.85802 6.59963 5.84535 6.65041 5.85515 6.69938L7.05524 12.6954C7.101 12.9255 7.22621 13.1322 7.40897 13.2793C7.5072 13.3583 7.62976 13.4123 7.74023 13.4466C7.85076 13.4809 7.96439 13.5001 8.052 13.5002L16.168 13.5L16.1807 13.5001L16.1816 13.5001C16.4159 13.5044 16.6444 13.4263 16.827 13.2793C17.0089 13.1328 17.1339 12.9272 17.1801 12.6983L18.3244 6.69789C18.3337 6.6491 18.3208 6.5987 18.2891 6.56043C18.2575 6.52215 18.2104 6.5 18.1607 6.5H6.01858Z" fill="black"/>
</svg>
