<svg width="27" height="26" viewBox="0 0 27 26" fill="none" xmlns="http://www.w3.org/2000/svg">
<g clip-path="url(#clip0)">
<path fill-rule="evenodd" clip-rule="evenodd" d="M12.4087 7.61719H7.56017L6.54434 3.04688H0.5V4.57031H5.3229L8.03055 16.7578H7.45703C6.19695 16.7578 5.17187 17.7829 5.17187 19.043C5.17187 20.3031 6.19695 21.3281 7.45703 21.3281H8.35906C8.27369 21.5676 8.21875 21.8215 8.21875 22.0898C8.21875 23.3499 9.24382 24.375 10.5039 24.375C11.764 24.375 12.7891 23.3499 12.7891 22.0898C12.7891 21.8215 12.7341 21.5676 12.6488 21.3281H15.9762C15.8909 21.5676 15.8359 21.8215 15.8359 22.0898C15.8359 23.3499 16.861 24.375 18.1211 24.375C19.3812 24.375 20.4062 23.3499 20.4062 22.0898C20.4062 21.8215 20.3513 21.5676 20.2659 21.3281H21.9297V19.8047H7.45703C7.03677 19.8047 6.69531 19.4632 6.69531 19.043C6.69531 18.6227 7.03677 18.2813 7.45703 18.2813H21.7571L22.6931 14.6715C22.1581 14.8755 21.594 15.0207 21.0088 15.0991L20.5788 16.7578H17.8059L17.9615 14.8918C17.444 14.7483 16.9488 14.5514 16.4822 14.3073L16.2779 16.7578H13.8704L13.6164 13.7109H15.5235C14.9341 13.2804 14.4091 12.7668 13.9658 12.1875H13.4896L13.4217 11.3724C12.7826 10.2667 12.4147 8.98469 12.4087 7.61719ZM9.59172 16.7578H12.3424L12.0885 13.7109H8.9145L9.59172 16.7578ZM11.7077 9.14062H7.89873L8.576 12.1875H11.9616L11.7077 9.14062ZM10.5039 22.8516C10.9242 22.8516 11.2656 22.5101 11.2656 22.0898C11.2656 21.6696 10.9242 21.3281 10.5039 21.3281C10.0836 21.3281 9.74219 21.6696 9.74219 22.0898C9.74219 22.5101 10.0836 22.8516 10.5039 22.8516ZM18.1211 22.8516C18.5414 22.8516 18.8828 22.5101 18.8828 22.0898C18.8828 21.6696 18.5414 21.3281 18.1211 21.3281C17.7008 21.3281 17.3594 21.6696 17.3594 22.0898C17.3594 22.5101 17.7008 22.8516 18.1211 22.8516Z" fill="#8B96B1"/>
<path fill-rule="evenodd" clip-rule="evenodd" d="M19.9922 12.5663C22.7444 12.5663 24.9755 10.3352 24.9755 7.58301C24.9755 4.83079 22.7444 2.59967 19.9922 2.59967C17.24 2.59967 15.0089 4.83079 15.0089 7.58301C15.0089 10.3352 17.24 12.5663 19.9922 12.5663ZM19.9922 14.083C23.582 14.083 26.4922 11.1729 26.4922 7.58301C26.4922 3.99316 23.582 1.08301 19.9922 1.08301C16.4023 1.08301 13.4922 3.99316 13.4922 7.58301C13.4922 11.1729 16.4023 14.083 19.9922 14.083Z" fill="#8B96B1"/>
<path fill-rule="evenodd" clip-rule="evenodd" d="M19.2333 10.833L19.2333 4.33301L20.75 4.33301L20.75 10.833L19.2333 10.833Z" fill="#8B96B1"/>
<path fill-rule="evenodd" clip-rule="evenodd" d="M16.7422 6.84075L23.2422 6.84076L23.2422 8.35742L16.7422 8.35742L16.7422 6.84075Z" fill="#8B96B1"/>
</g>
<defs>
<clipPath id="clip0">
<rect width="26" height="26" fill="white" transform="translate(0.5)"/>
</clipPath>
</defs>
</svg>
