<svg width="24" height="24" viewBox="0 0 24 24" fill="none" xmlns="http://www.w3.org/2000/svg">
<path d="M6.91079 13.336L14.8955 5.34083C14.981 5.25517 15.6654 4.56987 16.749 4.19867C18.2604 3.71325 19.8003 4.11301 21.0265 5.34083C22.2813 6.56866 22.652 8.08203 22.1672 9.5954C21.825 10.6805 21.1121 11.4229 21.0265 11.5085L12.443 20.1033C10.9602 21.5881 7.253 23.5013 3.831 20.1033C0.437518 16.7054 2.37665 12.9648 3.831 11.5085L13.0419 2.25699C13.3841 1.91434 13.9259 1.91434 14.2681 2.25699C14.6103 2.59964 14.6103 3.14217 14.2681 3.48482L5.08573 12.7364C4.94315 12.8506 2.06297 15.8488 5.08573 18.8755C8.02294 21.8166 10.9031 19.1896 11.2168 18.8755L19.8003 10.2521C19.8003 10.2521 20.2851 9.76673 20.5132 9.08143C20.7984 8.16769 20.5988 7.36818 19.8003 6.56866C18.0893 4.85541 16.4354 6.28312 16.1217 6.56866L8.13701 14.5353C7.85184 14.8208 7.65223 15.3062 8.13701 15.7916C8.62179 16.2771 9.07806 16.0486 9.36323 15.7916L14.8955 10.2521C15.2377 9.93805 15.808 9.93805 16.1217 10.2521C16.4639 10.5948 16.4639 11.1659 16.1217 11.5085L10.5894 17.0195C9.81949 17.7619 8.25108 18.3615 6.91079 17.0195C5.542 15.6774 6.14085 14.0784 6.91079 13.336Z" fill="#8B96B1"/>
</svg>
