<svg width="20" height="19" viewBox="0 0 20 19" fill="none" xmlns="http://www.w3.org/2000/svg">
<path d="M10.0007 0.333008C4.97016 0.333008 0.833984 4.46919 0.833984 9.49967C0.833984 14.5302 4.97016 18.6663 10.0007 18.6663C15.0311 18.6663 19.1673 14.5302 19.1673 9.49967C19.1673 4.46919 15.0311 0.333008 10.0007 0.333008ZM14.2933 10.3493H10.8502C10.4468 10.3493 10.2404 10.3493 9.77089 10.3493C9.43967 10.3493 9.15106 10.0547 9.15106 9.69661C9.15106 9.33854 9.15106 8.65008 9.15106 8.65008V4.23816C9.15106 3.74629 9.53114 3.38856 10.0007 3.38856C10.4702 3.38856 10.8502 3.76864 10.8502 4.23816V8.65008H14.2933C14.7852 8.65008 15.1429 9.03016 15.1429 9.49967C15.1429 9.96919 14.7628 10.3493 14.2933 10.3493Z" fill="#CDDAF1"/>
</svg>
