<svg width="80" height="21" viewBox="0 0 80 21" fill="none" xmlns="http://www.w3.org/2000/svg">
<path d="M28.6344 5.20068V6.49491H28.3243V5.48968H24.2735L24.2672 6.49491H23.957L23.9634 5.20068H24.2039C24.495 5.17554 24.6976 4.93261 24.8115 4.47188C24.9296 4.01115 25.0014 3.36613 25.0267 2.53682L25.071 1.0918H27.9509V5.20068H28.6344ZM25.3242 2.56195C25.2989 3.27398 25.2419 3.85618 25.1533 4.30853C25.0689 4.76089 24.9233 5.05827 24.7166 5.20068H27.6281V1.3808H25.3621L25.3242 2.56195Z" fill="#181818"/>
<path d="M30.7645 5.51481C30.4522 5.51481 30.1695 5.44361 29.9163 5.3012C29.6674 5.15879 29.4712 4.96193 29.3277 4.71063C29.1842 4.45513 29.1125 4.16822 29.1125 3.8499C29.1125 3.53157 29.1842 3.24676 29.3277 2.99545C29.4712 2.73996 29.6674 2.541 29.9163 2.3986C30.1695 2.25619 30.4522 2.18498 30.7645 2.18498C31.0767 2.18498 31.3573 2.25619 31.6063 2.3986C31.8594 2.541 32.0578 2.73996 32.2012 2.99545C32.3447 3.24676 32.4164 3.53157 32.4164 3.8499C32.4164 4.16822 32.3447 4.45513 32.2012 4.71063C32.0578 4.96193 31.8594 5.15879 31.6063 5.3012C31.3573 5.44361 31.0767 5.51481 30.7645 5.51481ZM30.7645 5.23209C31.0176 5.23209 31.2434 5.17345 31.4417 5.05617C31.6442 4.9389 31.8025 4.77555 31.9164 4.56612C32.0346 4.3567 32.0936 4.11796 32.0936 3.8499C32.0936 3.58184 32.0346 3.34309 31.9164 3.13367C31.8025 2.92425 31.6442 2.7609 31.4417 2.64362C31.2434 2.52634 31.0176 2.46771 30.7645 2.46771C30.5113 2.46771 30.2834 2.52634 30.0809 2.64362C29.8826 2.7609 29.7243 2.92425 29.6062 3.13367C29.4923 3.34309 29.4353 3.58184 29.4353 3.8499C29.4353 4.11796 29.4923 4.3567 29.6062 4.56612C29.7243 4.77555 29.8826 4.9389 30.0809 5.05617C30.2834 5.17345 30.5113 5.23209 30.7645 5.23209Z" fill="#181818"/>
<path d="M34.7826 5.51481C34.4619 5.51481 34.1749 5.44361 33.9218 5.3012C33.6686 5.15879 33.4703 4.96193 33.3268 4.71063C33.1833 4.45513 33.1116 4.16822 33.1116 3.8499C33.1116 3.52739 33.1833 3.24048 33.3268 2.98917C33.4703 2.73367 33.6686 2.53682 33.9218 2.3986C34.1749 2.25619 34.4619 2.18498 34.7826 2.18498C35.0484 2.18498 35.2889 2.23734 35.5041 2.34205C35.7235 2.44257 35.9008 2.59127 36.0358 2.78812L35.8016 2.95776C35.6834 2.79441 35.5358 2.67294 35.3585 2.59336C35.1855 2.50959 34.9935 2.46771 34.7826 2.46771C34.5252 2.46771 34.2931 2.52634 34.0863 2.64362C33.8838 2.75671 33.7235 2.91797 33.6053 3.12739C33.4914 3.33681 33.4344 3.57765 33.4344 3.8499C33.4344 4.12215 33.4914 4.36298 33.6053 4.57241C33.7235 4.78183 33.8838 4.94518 34.0863 5.06246C34.2931 5.17555 34.5252 5.23209 34.7826 5.23209C34.9935 5.23209 35.1855 5.1923 35.3585 5.11272C35.5358 5.02895 35.6834 4.90539 35.8016 4.74204L36.0358 4.91167C35.9008 5.10853 35.7235 5.25931 35.5041 5.36403C35.2889 5.46455 35.0484 5.51481 34.7826 5.51481Z" fill="#181818"/>
<path d="M39.105 2.49284H37.8138V5.48968H37.4974V2.49284H36.2062V2.21012H39.105V2.49284Z" fill="#181818"/>
<path d="M42.4788 2.21012L40.7825 5.93575C40.6559 6.22475 40.5082 6.42999 40.3394 6.55145C40.1749 6.67292 39.9787 6.73365 39.7508 6.73365C39.5989 6.73365 39.4554 6.70852 39.3204 6.65826C39.1896 6.608 39.0778 6.5347 38.985 6.43837L39.1432 6.19962C39.312 6.37135 39.5166 6.45721 39.7571 6.45721C39.9175 6.45721 40.0546 6.41323 40.1686 6.32528C40.2825 6.23732 40.388 6.08653 40.485 5.87292L40.6622 5.47711L39.1748 2.21012H39.5103L40.8331 5.14413L42.156 2.21012H42.4788Z" fill="#181818"/>
<path d="M46.1302 2.21012V5.48968H45.8137V2.49284H43.5605V5.48968H43.244V2.21012H46.1302Z" fill="#181818"/>
<path d="M47.4965 2.21012H47.813V3.7054H50.0536V2.21012H50.3701V5.48968H50.0536V3.98183H47.813V5.48968H47.4965V2.21012Z" fill="#181818"/>
<path d="M53.0532 5.51481C52.741 5.51481 52.4582 5.44361 52.2051 5.3012C51.9561 5.15879 51.7599 4.96193 51.6164 4.71063C51.473 4.45513 51.4012 4.16822 51.4012 3.8499C51.4012 3.53157 51.473 3.24676 51.6164 2.99545C51.7599 2.73996 51.9561 2.541 52.2051 2.3986C52.4582 2.25619 52.741 2.18498 53.0532 2.18498C53.3655 2.18498 53.6461 2.25619 53.895 2.3986C54.1482 2.541 54.3465 2.73996 54.49 2.99545C54.6334 3.24676 54.7052 3.53157 54.7052 3.8499C54.7052 4.16822 54.6334 4.45513 54.49 4.71063C54.3465 4.96193 54.1482 5.15879 53.895 5.3012C53.6461 5.44361 53.3655 5.51481 53.0532 5.51481ZM53.0532 5.23209C53.3064 5.23209 53.5321 5.17345 53.7305 5.05617C53.933 4.9389 54.0912 4.77555 54.2052 4.56612C54.3233 4.3567 54.3824 4.11796 54.3824 3.8499C54.3824 3.58184 54.3233 3.34309 54.2052 3.13367C54.0912 2.92425 53.933 2.7609 53.7305 2.64362C53.5321 2.52634 53.3064 2.46771 53.0532 2.46771C52.8 2.46771 52.5722 2.52634 52.3696 2.64362C52.1713 2.7609 52.0131 2.92425 51.8949 3.13367C51.781 3.34309 51.724 3.58184 51.724 3.8499C51.724 4.11796 51.781 4.3567 51.8949 4.56612C52.0131 4.77555 52.1713 4.9389 52.3696 5.05617C52.5722 5.17345 52.8 5.23209 53.0532 5.23209Z" fill="#181818"/>
<path d="M57.3614 2.21012H57.6779V3.7054H59.9185V2.21012H60.235V5.48968H59.9185V3.98183H57.6779V5.48968H57.3614V2.21012Z" fill="#181818"/>
<path d="M62.6966 2.18498C63.1059 2.18498 63.4202 2.2897 63.6397 2.49912C63.8591 2.70435 63.9688 3.00802 63.9688 3.41011V5.48968H63.665V4.90539C63.5595 5.09806 63.4055 5.24884 63.2029 5.35774C63.0004 5.46245 62.7578 5.51481 62.4751 5.51481C62.108 5.51481 61.8168 5.42895 61.6016 5.25722C61.3906 5.08549 61.2851 4.85932 61.2851 4.57869C61.2851 4.30644 61.3822 4.08655 61.5763 3.91901C61.7746 3.74728 62.089 3.66142 62.5194 3.66142H63.6523V3.39754C63.6523 3.09179 63.5679 2.85933 63.3991 2.70017C63.2346 2.541 62.992 2.46142 62.6713 2.46142C62.4519 2.46142 62.2409 2.49912 62.0383 2.57451C61.84 2.6499 61.6712 2.75043 61.532 2.87608L61.3737 2.6499C61.5383 2.50331 61.7366 2.39022 61.9687 2.31064C62.2008 2.22687 62.4434 2.18498 62.6966 2.18498ZM62.5194 5.25722C62.7936 5.25722 63.0257 5.19439 63.2156 5.06874C63.4097 4.94309 63.5553 4.76089 63.6523 4.52215V3.90644H62.5257C62.2008 3.90644 61.9645 3.96508 61.8168 4.08236C61.6733 4.19963 61.6016 4.36089 61.6016 4.56612C61.6016 4.77974 61.6818 4.94937 61.8421 5.07502C62.0025 5.19649 62.2282 5.25722 62.5194 5.25722Z" fill="#181818"/>
<path d="M29.7458 16.3295C29.4912 16.6914 29.1352 16.9628 28.6778 17.1438C28.2238 17.3213 27.6941 17.4101 27.0887 17.4101C26.4765 17.4101 25.933 17.2684 25.4584 16.985C24.9837 16.6982 24.6157 16.2919 24.3543 15.7661C24.0963 15.2404 23.9639 14.6309 23.957 13.9379V13.2875C23.957 12.1642 24.2202 11.2936 24.7464 10.6756C25.2761 10.0577 26.019 9.74868 26.9752 9.74868C27.7594 9.74868 28.3906 9.94841 28.8687 10.3479C29.3468 10.7439 29.6391 11.3072 29.7458 12.0379H28.7552C28.5694 11.0512 27.9778 10.5578 26.9804 10.5578C26.3165 10.5578 25.8127 10.79 25.4687 11.2543C25.1282 11.7152 24.9562 12.3844 24.9528 13.2619V13.8713C24.9528 14.7078 25.1454 15.3735 25.5306 15.8686C25.9158 16.3602 26.4369 16.606 27.0939 16.606C27.4653 16.606 27.7904 16.5651 28.069 16.4831C28.3476 16.4012 28.578 16.2629 28.7603 16.0683V14.3937H27.0216V13.5947H29.7458V16.3295Z" fill="#181818"/>
<path d="M30.9995 14.4858C30.9995 13.943 31.1061 13.4548 31.3193 13.0212C31.536 12.5876 31.8353 12.253 32.2171 12.0174C32.6023 11.7818 33.0408 11.664 33.5327 11.664C34.2928 11.664 34.9068 11.9252 35.3745 12.4476C35.8458 12.9699 36.0814 13.6647 36.0814 14.5319V14.5985C36.0814 15.1379 35.9765 15.6228 35.7666 16.0529C35.5603 16.4797 35.2628 16.8126 34.8741 17.0516C34.4889 17.2906 34.0452 17.4101 33.543 17.4101C32.7863 17.4101 32.1723 17.1489 31.7011 16.6265C31.2334 16.1041 30.9995 15.4128 30.9995 14.5524V14.4858ZM31.9591 14.5985C31.9591 15.2131 32.1018 15.7064 32.3873 16.0785C32.6762 16.4507 33.0615 16.6368 33.543 16.6368C34.028 16.6368 34.4132 16.449 34.6987 16.0734C34.9842 15.6944 35.1269 15.1653 35.1269 14.4858C35.1269 13.8781 34.9807 13.3865 34.6884 13.0109C34.3994 12.6319 34.0142 12.4425 33.5327 12.4425C33.0615 12.4425 32.6814 12.6285 32.3925 13.0007C32.1036 13.3728 31.9591 13.9054 31.9591 14.5985Z" fill="#181818"/>
<path d="M37.0255 14.4858C37.0255 13.943 37.1321 13.4548 37.3454 13.0212C37.5621 12.5876 37.8613 12.253 38.2431 12.0174C38.6283 11.7818 39.0669 11.664 39.5587 11.664C40.3189 11.664 40.9328 11.9252 41.4006 12.4476C41.8718 12.9699 42.1074 13.6647 42.1074 14.5319V14.5985C42.1074 15.1379 42.0025 15.6228 41.7927 16.0529C41.5863 16.4797 41.2888 16.8126 40.9001 17.0516C40.5149 17.2906 40.0712 17.4101 39.569 17.4101C38.8123 17.4101 38.1984 17.1489 37.7272 16.6265C37.2594 16.1041 37.0255 15.4128 37.0255 14.5524V14.4858ZM37.9851 14.5985C37.9851 15.2131 38.1279 15.7064 38.4134 16.0785C38.7023 16.4507 39.0875 16.6368 39.569 16.6368C40.054 16.6368 40.4392 16.449 40.7247 16.0734C41.0102 15.6944 41.1529 15.1653 41.1529 14.4858C41.1529 13.8781 41.0068 13.3865 40.7144 13.0109C40.4255 12.6319 40.0403 12.4425 39.5587 12.4425C39.0875 12.4425 38.7074 12.6285 38.4185 13.0007C38.1296 13.3728 37.9851 13.9054 37.9851 14.5985Z" fill="#181818"/>
<path d="M43.0774 14.491C43.0774 13.6272 43.2786 12.9409 43.681 12.4322C44.0834 11.9201 44.6165 11.664 45.2804 11.664C45.9614 11.664 46.4928 11.903 46.8746 12.381L46.921 11.7665H47.793V17.1745C47.793 17.8915 47.578 18.4565 47.148 18.8696C46.7215 19.2827 46.1471 19.4893 45.4248 19.4893C45.0224 19.4893 44.6286 19.4039 44.2434 19.2332C43.8581 19.0625 43.5641 18.8287 43.3611 18.5316L43.8564 17.9632C44.2657 18.465 44.7662 18.716 45.3578 18.716C45.8221 18.716 46.1833 18.5862 46.4412 18.3268C46.7026 18.0673 46.8333 17.702 46.8333 17.2308V16.7545C46.4515 17.1916 45.9304 17.4101 45.2701 17.4101C44.6165 17.4101 44.0869 17.1489 43.681 16.6265C43.2786 16.1041 43.0774 15.3923 43.0774 14.491ZM44.037 14.5985C44.037 15.2233 44.166 15.7149 44.4239 16.0734C44.6819 16.4285 45.043 16.606 45.5074 16.606C46.1093 16.606 46.5513 16.3346 46.8333 15.7918V13.2619C46.541 12.7327 46.1024 12.4681 45.5177 12.4681C45.0534 12.4681 44.6905 12.6473 44.4291 13.0058C44.1677 13.3643 44.037 13.8952 44.037 14.5985Z" fill="#181818"/>
<path d="M50.2746 17.3076H49.3201V9.44141H50.2746V17.3076Z" fill="#181818"/>
<path d="M54.1234 17.4101C53.3667 17.4101 52.751 17.1642 52.2764 16.6726C51.8017 16.1776 51.5644 15.5169 51.5644 14.6907V14.5166C51.5644 13.9669 51.6693 13.4769 51.8791 13.0468C52.0924 12.6132 52.3882 12.2752 52.7665 12.0328C53.1483 11.7869 53.561 11.664 54.0047 11.664C54.7305 11.664 55.2946 11.9013 55.697 12.3759C56.0994 12.8504 56.3006 13.5299 56.3006 14.4141V14.8085H52.5189C52.5326 15.3547 52.6926 15.7969 52.9987 16.1349C53.3082 16.4695 53.7003 16.6368 54.175 16.6368C54.5121 16.6368 54.7975 16.5685 55.0314 16.4319C55.2653 16.2953 55.47 16.1144 55.6454 15.8891L56.2284 16.3397C55.7606 17.0533 55.059 17.4101 54.1234 17.4101ZM54.0047 12.4425C53.6195 12.4425 53.2962 12.5824 53.0348 12.8624C52.7734 13.1389 52.6117 13.5282 52.5498 14.03H55.3462V13.9583C55.3186 13.4769 55.1879 13.1048 54.954 12.8419C54.7202 12.5756 54.4037 12.4425 54.0047 12.4425Z" fill="#181818"/>
<path d="M61.171 14.3885V17.3076H60.1804V9.85111H62.9509C63.773 9.85111 64.4162 10.0594 64.8805 10.4759C65.3483 10.8924 65.5822 11.4438 65.5822 12.1301C65.5822 12.8539 65.3535 13.4121 64.896 13.8047C64.442 14.1939 63.7902 14.3885 62.9406 14.3885H61.171ZM61.171 13.5845H62.9509C63.4806 13.5845 63.8865 13.4616 64.1685 13.2158C64.4506 12.9665 64.5916 12.608 64.5916 12.1403C64.5916 11.6965 64.4506 11.3414 64.1685 11.0751C63.8865 10.8088 63.4995 10.6705 63.0077 10.6603H61.171V13.5845Z" fill="#181818"/>
<path d="M67.7336 17.3076H66.7791V9.44141H67.7336V17.3076Z" fill="#181818"/>
<path d="M72.7123 17.3076C72.6573 17.1984 72.6126 17.0038 72.5782 16.7238C72.1345 17.1813 71.6048 17.4101 70.9891 17.4101C70.4388 17.4101 69.9865 17.2564 69.6322 16.9492C69.2814 16.6385 69.106 16.2458 69.106 15.7713C69.106 15.1943 69.3261 14.747 69.7664 14.4295C70.2101 14.1086 70.8326 13.9481 71.634 13.9481H72.5627V13.5128C72.5627 13.1816 72.463 12.9187 72.2635 12.7241C72.064 12.5261 71.7699 12.4271 71.3812 12.4271C71.0407 12.4271 70.7552 12.5124 70.5248 12.6832C70.2943 12.8539 70.1791 13.0604 70.1791 13.3028H69.2195C69.2195 13.0263 69.3175 12.76 69.5136 12.5039C69.7131 12.2444 69.9813 12.0396 70.3184 11.8894C70.6589 11.7391 71.0321 11.664 71.438 11.664C72.0812 11.664 72.5851 11.8245 72.9496 12.1454C73.3142 12.4629 73.5034 12.9017 73.5172 13.4616V16.012C73.5172 16.5207 73.5825 16.9253 73.7132 17.2257V17.3076H72.7123ZM71.1284 16.5855C71.4277 16.5855 71.7114 16.5087 71.9797 16.3551C72.248 16.2015 72.4423 16.0017 72.5627 15.7559V14.619H71.8146C70.6452 14.619 70.0604 14.9587 70.0604 15.6381C70.0604 15.9351 70.1602 16.1673 70.3597 16.3346C70.5592 16.5019 70.8154 16.5855 71.1284 16.5855Z" fill="#181818"/>
<path d="M76.7572 15.9198L78.0573 11.7665H79.0789L76.8346 18.1629C76.4872 19.0847 75.9352 19.5456 75.1785 19.5456L74.9979 19.5303L74.6419 19.4637V18.6955L74.8999 18.716C75.2232 18.716 75.4743 18.6511 75.6531 18.5214C75.8354 18.3916 75.985 18.1544 76.102 17.8095L76.3135 17.2462L74.322 11.7665H75.3642L76.7572 15.9198Z" fill="#181818"/>
<path d="M17.7699 9.6152L14.2069 7.55859L11.2695 10.3962L13.9549 12.9995L17.7699 10.752C17.873 10.6937 17.9587 10.6092 18.0183 10.5071C18.0779 10.4049 18.1093 10.2888 18.1093 10.1706C18.1093 10.0524 18.0779 9.93624 18.0183 9.8341C17.9587 9.73195 17.873 9.64744 17.7699 9.58917V9.6152Z" fill="#181818"/>
<path d="M13.5979 7.2122L9.66989 4.94733L1.06641 0.539062L10.7823 9.92832L13.5979 7.2122Z" fill="#181818"/>
<path d="M1.20703 20.1078L9.68886 15.4392L13.3475 13.3306L10.7838 10.8574L1.20703 20.1078Z" fill="#181818"/>
<path d="M0.49394 0.919922L0.476562 19.872L10.3054 10.396L0.49394 0.919922Z" fill="#181818"/>
</svg>
