<svg width="20" height="20" viewBox="0 0 20 20" fill="none" xmlns="http://www.w3.org/2000/svg">
<path fill-rule="evenodd" clip-rule="evenodd" d="M18.2004 3.27024C17.1163 2.18614 15.6464 1.57636 14.1133 1.57471C13.3221 1.57563 12.5392 1.73863 11.8134 2.05366C11.136 2.34773 10.5215 2.76844 10.0027 3.29271C9.22567 2.50751 8.23909 1.96045 7.15911 1.71796C6.02776 1.46394 4.84617 1.55588 3.76773 1.98187C2.68929 2.40785 1.76381 3.14819 1.11145 4.10679C0.459077 5.06538 0.109946 6.19803 0.109375 7.35755C0.109375 8.79955 0.690359 10.2239 1.55336 11.5455C2.41695 12.868 3.56981 14.0983 4.73049 15.1554C7.0421 17.2606 9.40242 18.6946 9.62339 18.8172C9.74085 18.8872 9.87505 18.9241 10.0118 18.9241C10.1491 18.9241 10.2838 18.8869 10.4015 18.8165C10.6025 18.7002 12.9628 17.2652 15.2772 15.1553C16.4367 14.0983 17.589 12.868 18.4523 11.5455C19.315 10.2239 19.896 8.79939 19.896 7.35739C19.8943 5.82424 19.2845 4.35435 18.2004 3.27024ZM10.4015 18.8165L10.4027 18.8158L10.3254 18.6872L10.4004 18.8171L10.4015 18.8165ZM12.7452 3.3173C13.604 3.02647 14.5332 3.01692 15.3978 3.29005C16.2624 3.56318 17.0175 4.10476 17.5534 4.83618C18.0893 5.5676 18.3782 6.45079 18.3781 7.35753C18.3781 8.41554 17.9585 9.50361 17.2904 10.5635C16.623 11.6223 15.7142 12.6425 14.7521 13.5617C12.8904 15.3402 10.8436 16.7269 10.0026 17.2697C9.16158 16.7284 7.11493 15.3425 5.25329 13.564C4.29112 12.6448 3.38233 11.6244 2.71492 10.5652C2.04691 9.50501 1.62732 8.41641 1.62729 7.35768C1.62743 7.19016 1.63743 7.02345 1.65703 6.85837C1.74343 6.13067 2.01633 5.43447 2.45302 4.83901C2.98879 4.10847 3.74326 3.5675 4.6071 3.29452C5.47094 3.02154 6.39927 3.03072 7.25754 3.32074C7.75428 3.4886 8.21264 3.74551 8.6117 4.07582C8.90213 4.31622 9.16116 4.59551 9.3807 4.90764C9.45076 5.00708 9.54369 5.08823 9.65167 5.14424C9.75965 5.20025 9.87951 5.22949 10.0012 5.22949C10.1228 5.22949 10.2427 5.20025 10.3506 5.14424C10.4586 5.08823 10.5517 5.00684 10.6218 4.9074C11.1425 4.16512 11.8863 3.60814 12.7452 3.3173Z" fill="black"/>
</svg>
