<svg width="24" height="24" viewBox="0 0 24 24" fill="none" xmlns="http://www.w3.org/2000/svg">
<path fill-rule="evenodd" clip-rule="evenodd" d="M21.8382 3.92429C20.5373 2.62337 18.7734 1.89163 16.9336 1.88965C15.9842 1.89075 15.0447 2.08635 14.1738 2.46439C13.3608 2.81727 12.6234 3.32213 12.0009 3.95126C11.0685 3.00901 9.88456 2.35254 8.58859 2.06155C7.23097 1.75672 5.81306 1.86706 4.51893 2.37824C3.2248 2.88942 2.11423 3.77783 1.33139 4.92815C0.548549 6.07846 0.129591 7.43764 0.128906 8.82906C0.128906 10.5595 0.826087 12.2686 1.86169 13.8546C2.898 15.4416 4.28143 16.918 5.67425 18.1865C8.44818 20.7127 11.2806 22.4335 11.5457 22.5807C11.6867 22.6646 11.8477 22.709 12.0118 22.709C12.1765 22.709 12.3382 22.6643 12.4795 22.5797C12.7207 22.4402 15.553 20.7182 18.3303 18.1864C19.7217 16.9179 21.1044 15.4416 22.1404 13.8546C23.1756 12.2686 23.8728 10.5593 23.8728 8.82887C23.8708 6.98908 23.1391 5.22522 21.8382 3.92429ZM12.4795 22.5797L12.4809 22.5789L12.3882 22.4246L12.4781 22.5805L12.4795 22.5797ZM15.2919 3.98076C16.3225 3.63176 17.4375 3.62031 18.475 3.94806C19.5126 4.27581 20.4187 4.92571 21.0618 5.80342C21.7049 6.68112 22.0515 7.74095 22.0513 8.82904C22.0513 10.0986 21.5478 11.4043 20.7462 12.6761C19.9453 13.9468 18.8547 15.171 17.7001 16.274C15.4661 18.4083 13.01 20.0723 12.0007 20.7236C10.9916 20.074 8.53557 18.411 6.30161 16.2768C5.147 15.1737 4.05645 13.9493 3.25556 12.6782C2.45395 11.406 1.95044 10.0997 1.9504 8.82921C1.95057 8.62819 1.96257 8.42814 1.98609 8.23004C2.08977 7.3568 2.41725 6.52137 2.94128 5.80681C3.5842 4.93016 4.48957 4.281 5.52618 3.95342C6.56279 3.62585 7.67678 3.63687 8.7067 3.98489C9.30279 4.18631 9.85283 4.49461 10.3317 4.89098C10.6802 5.17947 10.991 5.51461 11.2545 5.88917C11.3386 6.0085 11.4501 6.10587 11.5797 6.17309C11.7092 6.2403 11.8531 6.27539 11.999 6.27539C12.145 6.27539 12.2888 6.2403 12.4184 6.17309C12.548 6.10587 12.6597 6.00821 12.7438 5.88888C13.3687 4.99815 14.2613 4.32977 15.2919 3.98076Z" fill="#E31B4B"/>
</svg>
