<svg width="20" height="21" viewBox="0 0 20 21" fill="none" xmlns="http://www.w3.org/2000/svg">
<path fill-rule="evenodd" clip-rule="evenodd" d="M18.2004 3.76976C17.1163 2.68565 15.6464 2.07587 14.1133 2.07422C13.3221 2.07514 12.5392 2.23814 11.8134 2.55317C11.136 2.84724 10.5215 3.26795 10.0027 3.79223C9.22567 3.00702 8.23909 2.45996 7.15911 2.21747C6.02776 1.96345 4.84617 2.05539 3.76773 2.48138C2.68929 2.90736 1.76381 3.6477 1.11145 4.6063C0.459077 5.5649 0.109946 6.69754 0.109375 7.85706C0.109375 9.29907 0.690359 10.7234 1.55336 12.045C2.41695 13.3675 3.56981 14.5978 4.73049 15.6549C7.0421 17.7601 9.40242 19.1941 9.62339 19.3167C9.74085 19.3867 9.87505 19.4237 10.0118 19.4237C10.1491 19.4237 10.2838 19.3864 10.4015 19.316C10.6025 19.1997 12.9628 17.7647 15.2772 15.6548C16.4367 14.5978 17.589 13.3675 18.4523 12.045C19.315 10.7234 19.896 9.2989 19.896 7.8569C19.8943 6.32375 19.2845 4.85386 18.2004 3.76976ZM10.4015 19.316L10.4027 19.3153L10.3254 19.1867L10.4004 19.3166L10.4015 19.316Z" fill="#CDDAF1"/>
</svg>
