<svg width="24" height="24" viewBox="0 0 24 24" fill="none" xmlns="http://www.w3.org/2000/svg">
<path fill-rule="evenodd" clip-rule="evenodd" d="M21.8382 3.92405C20.5373 2.62312 18.7734 1.89139 16.9336 1.8894C15.9842 1.89051 15.0447 2.08611 14.1738 2.46414C13.3608 2.81703 12.6234 3.32189 12.0009 3.95101C11.0685 3.00877 9.88456 2.3523 8.58859 2.06131C7.23097 1.75648 5.81306 1.86681 4.51893 2.37799C3.2248 2.88917 2.11423 3.77759 1.33139 4.9279C0.548549 6.07822 0.129591 7.43739 0.128906 8.82882C0.128906 10.5592 0.826087 12.2684 1.86169 13.8544C2.898 15.4414 4.28143 16.9177 5.67425 18.1862C8.44818 20.7125 11.2806 22.4332 11.5457 22.5804C11.6867 22.6644 11.8477 22.7087 12.0118 22.7087C12.1765 22.7087 12.3382 22.6641 12.4795 22.5795C12.7207 22.4399 15.553 20.718 18.3303 18.1862C19.7217 16.9177 21.1044 15.4414 22.1404 13.8543C23.1756 12.2684 23.8728 10.559 23.8728 8.82862C23.8708 6.98884 23.1391 5.22497 21.8382 3.92405ZM12.4795 22.5795L12.4809 22.5787L12.3882 22.4244L12.4781 22.5803L12.4795 22.5795ZM15.2919 3.98052C16.3225 3.63152 17.4375 3.62006 18.475 3.94781C19.5126 4.27557 20.4187 4.92547 21.0618 5.80317C21.7049 6.68088 22.0515 7.7407 22.0513 8.82879C22.0513 10.0984 21.5478 11.4041 20.7462 12.6759C19.9453 13.9465 18.8547 15.1707 17.7001 16.2738C15.4661 18.408 13.01 20.072 12.0007 20.7234C10.9916 20.0738 8.53557 18.4107 6.30161 16.2765C5.147 15.1735 4.05645 13.949 3.25556 12.678C2.45395 11.4058 1.95044 10.0995 1.9504 8.82897C1.95057 8.62795 1.96257 8.4279 1.98609 8.2298C2.08977 7.35656 2.41725 6.52112 2.94128 5.80657C3.5842 4.92991 4.48957 4.28076 5.52618 3.95318C6.56279 3.6256 7.67678 3.63662 8.7067 3.98464C9.30279 4.18607 9.85283 4.49436 10.3317 4.89074C10.6802 5.17922 10.991 5.51436 11.2545 5.88892C11.3386 6.00825 11.4501 6.10563 11.5797 6.17284C11.7092 6.24006 11.8531 6.27514 11.999 6.27514C12.145 6.27514 12.2888 6.24006 12.4184 6.17284C12.548 6.10563 12.6597 6.00797 12.7438 5.88863C13.3687 4.9979 14.2613 4.32952 15.2919 3.98052Z" fill="#E31B4B"/>
<path fill-rule="evenodd" clip-rule="evenodd" d="M21.8382 3.92405C20.5373 2.62312 18.7734 1.89139 16.9336 1.8894C15.9842 1.89051 15.0447 2.08611 14.1738 2.46414C13.3608 2.81703 12.6234 3.32189 12.0009 3.95101C11.0685 3.00877 9.88456 2.3523 8.58859 2.06131C7.23097 1.75648 5.81306 1.86681 4.51893 2.37799C3.2248 2.88917 2.11423 3.77759 1.33139 4.9279C0.548549 6.07822 0.129591 7.43739 0.128906 8.82882C0.128906 10.5592 0.826087 12.2684 1.86169 13.8544C2.898 15.4414 4.28143 16.9177 5.67425 18.1862C8.44818 20.7125 11.2806 22.4332 11.5457 22.5804C11.6867 22.6644 11.8477 22.7087 12.0118 22.7087C12.1765 22.7087 12.3382 22.6641 12.4795 22.5795C12.7207 22.4399 15.553 20.718 18.3303 18.1862C19.7217 16.9177 21.1044 15.4414 22.1404 13.8543C23.1756 12.2684 23.8728 10.559 23.8728 8.82862C23.8708 6.98884 23.1391 5.22497 21.8382 3.92405ZM12.4795 22.5795L12.4809 22.5787L12.3882 22.4244L12.4781 22.5803L12.4795 22.5795Z" fill="#E31B4B"/>
</svg>
