<svg width="20" height="20" viewBox="0 0 20 20" fill="none" xmlns="http://www.w3.org/2000/svg">
<path fill-rule="evenodd" clip-rule="evenodd" d="M11.668 2.50008C11.668 2.03984 12.0411 1.66675 12.5013 1.66675H15.8346C16.4977 1.66675 17.1336 1.93014 17.6024 2.39898C18.0712 2.86782 18.3346 3.50371 18.3346 4.16675V15.8334C18.3346 16.4965 18.0712 17.1323 17.6024 17.6012C17.1336 18.07 16.4977 18.3334 15.8346 18.3334H12.5013C12.0411 18.3334 11.668 17.9603 11.668 17.5001C11.668 17.0398 12.0411 16.6667 12.5013 16.6667H15.8346C16.0556 16.6667 16.2676 16.579 16.4239 16.4227C16.5802 16.2664 16.668 16.0544 16.668 15.8334V4.16675C16.668 3.94573 16.5802 3.73377 16.4239 3.57749C16.2676 3.42121 16.0556 3.33341 15.8346 3.33341H12.5013C12.0411 3.33341 11.668 2.96032 11.668 2.50008Z" fill="#8B96B1"/>
<path fill-rule="evenodd" clip-rule="evenodd" d="M7.74408 5.24408C8.06951 4.91864 8.59715 4.91864 8.92259 5.24408L13.0893 9.41074C13.4147 9.73618 13.4147 10.2638 13.0893 10.5893L8.92259 14.7559C8.59715 15.0814 8.06951 15.0814 7.74408 14.7559C7.41864 14.4305 7.41864 13.9028 7.74408 13.5774L11.3215 10L7.74408 6.42259C7.41864 6.09715 7.41864 5.56951 7.74408 5.24408Z" fill="#8B96B1"/>
<path fill-rule="evenodd" clip-rule="evenodd" d="M1.66797 10.0001C1.66797 9.53984 2.04106 9.16675 2.5013 9.16675H12.5013C12.9615 9.16675 13.3346 9.53984 13.3346 10.0001C13.3346 10.4603 12.9615 10.8334 12.5013 10.8334H2.5013C2.04106 10.8334 1.66797 10.4603 1.66797 10.0001Z" fill="#8B96B1"/>
</svg>
