<svg width="67" height="48" viewBox="0 0 67 48" fill="none" xmlns="http://www.w3.org/2000/svg">
<path d="M12.867 26.6911H14.017C14.4626 26.6911 14.804 26.5736 15.0409 26.3411C15.2778 26.1063 15.3974 25.791 15.3974 25.3976C15.3974 25.028 15.267 24.7259 15.0082 24.4953C14.7475 24.2629 14.4429 24.1476 14.093 24.1476H12.867V26.6911ZM31.1869 7.71777C31.1431 7.76194 28.3439 9.25285 27.9756 11.5619C27.6662 13.5026 31.2658 16.1797 33.2709 18.554C33.7225 19.0888 34.0875 19.6081 34.3115 20.1003C34.2302 20.2578 34.1518 20.4331 34.0767 20.6259L32.8135 24.604H32.7874L31.6136 20.9671C31.4028 20.3585 31.1918 19.8998 30.9831 19.5911C30.7746 19.2803 30.4398 19.1258 29.981 19.1258C29.494 19.1258 29.1462 19.2606 28.9375 19.5303C28.818 19.6606 28.731 19.8062 28.6723 19.9737C28.6159 20.1389 28.5571 20.3824 28.494 20.7042L27.4506 26.7171C27.4331 26.8258 27.4158 26.9432 27.4007 27.0672C27.3854 27.1888 27.3701 27.3084 27.3572 27.4236C27.344 27.5389 27.3375 27.6019 27.3353 27.6149C27.3614 27.8975 27.468 28.128 27.6593 28.3106C27.8484 28.4911 28.0875 28.5823 28.3767 28.5823C29.0397 28.5823 29.4397 28.1128 29.5766 27.1714L30.1767 23.0519H30.2049L31.6637 27.6693C31.755 27.9845 31.8896 28.2172 32.0658 28.3628C32.2418 28.5085 32.5027 28.5823 32.8505 28.5823C33.1789 28.5671 33.4222 28.4824 33.5831 28.3236C33.7419 28.1671 33.8636 27.9497 33.9462 27.6693L35.383 23.0519H35.4093L36.1006 27.4867C36.1375 27.8128 36.2505 28.0758 36.4354 28.2779C36.6222 28.4802 36.87 28.5823 37.1831 28.5823C37.4918 28.5823 37.7506 28.4845 37.957 28.2911C38.1635 28.0975 38.2657 27.8541 38.2657 27.5627C38.2657 27.4737 38.2548 27.3368 38.2308 27.1519C38.207 26.965 38.1918 26.8453 38.1853 26.7933L37.0657 20.402C36.7285 18.4571 33.5402 15.8629 32.1963 14.4184H35.4084C35.4937 14.5371 35.6329 14.6143 35.7899 14.6143C36.0486 14.6143 36.2577 14.4047 36.2567 14.1457C36.2558 13.8867 36.0455 13.6767 35.7867 13.6767C35.6297 13.6767 35.4913 13.754 35.4065 13.8726H31.7118C31.3064 13.3919 30.9483 12.8965 30.6715 12.3892H34.8422C34.9275 12.5077 35.0667 12.5851 35.2236 12.5851C35.4823 12.5851 35.6913 12.375 35.6903 12.1161C35.6896 11.8573 35.4791 11.6474 35.2205 11.6474C35.0635 11.6474 34.9249 11.7246 34.8403 11.8434H30.4084C30.2063 11.3577 30.0877 10.8621 30.0808 10.3595H32.7935C32.8789 10.4781 33.0181 10.5555 33.1751 10.5555C33.4337 10.5555 33.6427 10.3454 33.6418 10.0869C33.641 9.82777 33.4304 9.61789 33.1719 9.61789C33.0149 9.61789 32.8763 9.69508 32.7917 9.81373H30.1182C30.224 9.12444 30.5559 8.4237 31.1869 7.71777ZM44.8456 28.522V27.5815C44.8412 27.5373 44.839 27.492 44.839 27.4455C44.839 27.3762 44.8443 27.3095 44.855 27.2456C44.9171 26.8 45.2914 26.4507 45.7481 26.4275C45.8479 26.4119 45.9557 26.4041 46.0716 26.4041H46.4064L48.889 20.0933C49.0433 19.7432 49.2019 19.4954 49.3629 19.3498C49.5238 19.1999 49.7499 19.1258 50.039 19.1258C50.315 19.1258 50.5324 19.202 50.691 19.3519C50.852 19.4998 50.9976 19.7389 51.1345 20.065L53.6824 26.4041H53.9824C54.089 26.4041 54.1906 26.4114 54.2869 26.4263H54.2886C54.7786 26.4263 55.1854 26.8023 55.2342 27.2801C55.2408 27.3253 55.2452 27.3725 55.2476 27.4215C55.2476 27.4784 55.2447 27.5329 55.2392 27.5853V28.522C55.2392 29.0443 54.8109 29.4727 54.2886 29.4727H54.1272C53.605 29.4727 53.1766 29.0449 53.1766 28.522V28.5171H46.9083V28.522C46.9083 29.0443 46.48 29.4727 45.9576 29.4727H45.7963C45.274 29.4727 44.8456 29.0449 44.8456 28.522ZM11.8887 19.2042H15.8496C16.0952 19.2042 16.2996 19.2998 16.4648 19.4912C16.6321 19.6846 16.717 19.9259 16.717 20.2194C16.717 20.5215 16.6344 20.7671 16.467 20.9563C16.3017 21.1454 16.0972 21.2389 15.8496 21.2389H12.867V22.2694H14.6017C15.2126 22.2694 15.7409 22.4042 16.1909 22.6737C16.6408 22.941 16.9865 23.3107 17.2234 23.7824C17.4626 24.2541 17.5887 24.7845 17.6017 25.3758C17.6017 25.967 17.4756 26.5064 17.2257 26.9933C16.9758 27.4801 16.5995 27.865 16.0973 28.1519C15.5952 28.4389 14.9885 28.5823 14.2756 28.5823H11.8496C11.4911 28.5823 11.2192 28.4758 11.0343 28.2606C10.8475 28.0433 10.7539 27.8041 10.7539 27.541V20.352C10.7539 19.8084 10.9365 19.4606 11.3018 19.302C11.3061 19.2998 11.3105 19.2976 11.3148 19.2954C11.3214 19.2933 11.3256 19.2912 11.3301 19.2912C11.3367 19.2889 11.3432 19.2866 11.3474 19.2846C11.3516 19.2825 11.3562 19.2802 11.3605 19.278C11.4624 19.2281 11.5779 19.2042 11.6997 19.2042C11.7256 19.2042 11.7496 19.202 11.7713 19.1999C11.7821 19.1999 11.7909 19.202 11.8018 19.2042C11.8061 19.2042 11.8105 19.2042 11.8148 19.2042C11.8214 19.2042 11.8279 19.2042 11.8343 19.2042C11.8409 19.2042 11.8475 19.2042 11.8561 19.2042C11.867 19.2042 11.8778 19.2042 11.8887 19.2042ZM18.3223 27.5671V20.3542C18.3223 19.965 18.4072 19.6649 18.5789 19.4585C18.7505 19.2521 18.9855 19.1411 19.2876 19.1258C19.6398 19.1258 19.9201 19.2194 20.1266 19.4085C20.3332 19.5954 20.4353 19.8586 20.4353 20.1954V24.6824L24.3614 19.7911C24.5223 19.5802 24.6809 19.4171 24.8397 19.302C24.9983 19.1846 25.1962 19.1258 25.4309 19.1258C25.7571 19.1258 26.018 19.2368 26.2114 19.4563C26.405 19.678 26.5005 19.9586 26.5005 20.2998V27.4867C26.5005 27.8105 26.4071 28.0736 26.2223 28.2758C26.0354 28.4802 25.7636 28.5823 25.4049 28.5823C25.0723 28.5823 24.8202 28.4736 24.6463 28.2584C24.4745 28.041 24.3875 27.7845 24.3875 27.4867V23.0519H24.3614L20.4353 27.941C20.231 28.1497 20.0527 28.3041 19.9005 28.4063C19.7462 28.5063 19.5593 28.5562 19.3398 28.5562C19.0288 28.5562 18.7811 28.4518 18.5985 28.2454C18.4135 28.0389 18.3223 27.8128 18.3223 27.5671ZM38.9678 22.9455V20.2716C38.9678 19.9172 39.0722 19.6498 39.283 19.4716C39.4938 19.2933 39.7265 19.2042 39.983 19.2042H43.3265C43.6265 19.2042 43.8677 19.2912 44.0481 19.4651C44.2264 19.6389 44.3156 19.8824 44.3156 20.1954C44.3156 20.4694 44.2373 20.6975 44.0787 20.8824C43.9178 21.0673 43.6675 21.1607 43.3265 21.1607H41.0808V22.8432H43.1699C43.4874 22.8432 43.733 22.9389 43.9091 23.1281C44.0853 23.3171 44.1743 23.5498 44.1743 23.8236C44.1743 24.0911 44.083 24.3215 43.9004 24.5193C43.7201 24.7149 43.4763 24.8127 43.1699 24.8127H41.0808V26.5476H43.3265C43.6938 26.5476 43.9634 26.6389 44.1373 26.8194C44.309 27.002 44.3961 27.2236 44.3961 27.4867C44.3961 27.7888 44.309 28.0346 44.1351 28.2215C43.9613 28.4106 43.6915 28.504 43.3265 28.504H40.0634C39.7114 28.504 39.4395 28.4019 39.2503 28.1975C39.0612 27.9954 38.9678 27.7476 38.9678 27.4584V22.9455ZM51.3889 26.4041L50.039 22.8455L48.6933 26.4041H51.3889Z" fill="url(#paint0_linear)"/>
<path d="M21.9828 37.7599C21.3765 37.7329 21.0743 37.4145 21.0743 36.8101V35.2234H19.6406C19.1351 35.2234 18.6961 35.1118 18.3237 34.8906C17.9514 34.6676 17.6654 34.3617 17.4675 33.9714C17.2714 33.581 17.167 33.1421 17.1562 32.6527C17.1562 32.1634 17.2606 31.7173 17.4675 31.3143C17.6743 30.9114 17.9856 30.593 18.4011 30.3555C18.8167 30.118 19.3204 29.9993 19.9086 29.9993H21.9162C21.9378 29.9993 21.9594 29.9993 21.981 29.9993H23.9886C24.5768 29.9993 25.0805 30.118 25.4961 30.3555C25.9117 30.593 26.2228 30.9114 26.4297 31.3143C26.6366 31.7173 26.7409 32.1634 26.7409 32.6527C26.7301 33.1421 26.6258 33.581 26.4279 33.9714C26.23 34.3617 25.9458 34.6676 25.5734 34.8906C25.2011 35.1118 24.7621 35.2234 24.2566 35.2234H22.8229V36.8101C22.8229 37.4145 22.5422 37.7329 21.9828 37.7599ZM22.8229 31.5644V33.6692H23.8357C24.1253 33.6692 24.379 33.5738 24.593 33.3813C24.8089 33.1906 24.9168 32.9406 24.9168 32.6348C24.9168 32.3092 24.8179 32.0501 24.6218 31.8558C24.4239 31.6615 24.1415 31.5644 23.7727 31.5644H22.8229ZM21.0779 33.6692L21.0743 31.5644H20.1245C19.7557 31.5644 19.4733 31.6615 19.2754 31.8558C19.0793 32.0501 18.9804 32.3092 18.9804 32.6348C18.9804 32.9406 19.0883 33.1906 19.3024 33.3813C19.5182 33.5738 19.7719 33.6692 20.0615 33.6692H21.0743H21.0779ZM26.9982 36.1625L28.8439 31.1848C29.1281 30.3159 29.5742 29.8806 30.1823 29.8806C30.7831 29.8806 31.2328 30.2799 31.5315 31.0769L33.4618 36.238C33.5643 36.569 33.6146 36.8317 33.6146 37.0259C33.6146 37.2652 33.5355 37.4541 33.3772 37.5944C33.2189 37.7329 33.0174 37.8031 32.771 37.8031C32.332 37.8031 32.0298 37.5296 31.8661 36.9827L31.6484 36.238H28.7899L28.5525 36.9827C28.4715 37.2454 28.3581 37.4433 28.2143 37.5782C28.0703 37.7131 27.8725 37.7815 27.6241 37.7815C27.0773 37.7815 26.8039 37.5368 26.8039 37.0457C26.8039 36.8137 26.8686 36.5204 26.9982 36.1625ZM29.2864 34.6189H31.1195L30.2363 31.8127H30.2128L29.2864 34.6189ZM34.0373 30.9474C34.0373 30.7297 34.1147 30.5318 34.2676 30.3537C34.4223 30.1756 34.6472 30.0857 34.944 30.0857H36.9516C37.5417 30.0857 38.0435 30.2044 38.4591 30.4419C38.8747 30.6793 39.1859 30.9977 39.3927 31.4007C39.5996 31.8037 39.704 32.2498 39.704 32.7391C39.6932 33.2284 39.5888 33.6673 39.391 34.0577C39.1949 34.4481 38.9088 34.7539 38.5364 34.977C38.1641 35.1982 37.7269 35.3097 37.2214 35.3097H35.7859V36.9162C35.7859 37.222 35.7014 37.4541 35.5305 37.6106C35.3596 37.7671 35.1419 37.8462 34.8793 37.8462C34.318 37.8175 34.0373 37.5009 34.0373 36.8946V30.9474ZM35.7859 31.6508V33.7555H36.8005C37.0901 33.7555 37.3419 33.6601 37.5579 33.4677C37.7719 33.277 37.8799 33.0269 37.8799 32.7211C37.8799 32.3955 37.7809 32.1364 37.5848 31.9422C37.3887 31.7479 37.1063 31.6508 36.7375 31.6508H35.7859ZM40.7582 31.3269C40.8103 31.0607 40.8588 30.8592 40.9057 30.7225C40.9542 30.5839 41.0262 30.4635 41.1251 30.3555C41.2978 30.1324 41.5857 30.021 41.9886 30.021C42.3682 30.021 42.6452 30.1486 42.8179 30.4059C42.9907 30.6613 43.1651 31.0409 43.3396 31.5446L44.311 34.5542H44.3326L45.3778 31.2621C45.5307 30.87 45.6998 30.566 45.8815 30.3483C46.065 30.1306 46.3258 30.021 46.664 30.021C46.9752 30.021 47.2379 30.118 47.452 30.3141C47.6642 30.5103 47.7973 30.7657 47.8513 31.0769L48.7777 36.3658C48.7831 36.4089 48.7957 36.5078 48.8156 36.6625C48.8353 36.8155 48.8443 36.9288 48.8443 37.0026C48.8443 37.2437 48.7598 37.4451 48.5889 37.6052C48.418 37.7653 48.2039 37.8462 47.9484 37.8462C47.6895 37.8462 47.4843 37.7617 47.3297 37.5944C47.1767 37.4271 47.0832 37.2094 47.0526 36.9396L46.4806 33.2698H46.4589L45.2699 37.0907C45.2015 37.3228 45.1008 37.5026 44.9695 37.6322C44.8364 37.7635 44.6349 37.8336 44.3632 37.8462C44.0754 37.8462 43.8595 37.7851 43.7138 37.6646C43.5681 37.544 43.4566 37.3515 43.3809 37.0907L42.1739 33.2698H42.1505L41.654 36.6787C41.5407 37.4577 41.2097 37.8462 40.661 37.8462C40.4217 37.8462 40.2239 37.7707 40.0674 37.6214C39.9091 37.4703 39.8209 37.2796 39.7993 37.0457C39.8011 37.0349 39.8065 36.9827 39.8173 36.8874C39.8281 36.7921 39.8407 36.6931 39.8533 36.5924C39.8659 36.4899 39.8803 36.3927 39.8947 36.3028L40.7582 31.3269Z" fill="url(#paint1_linear)"/>
<path fill-rule="evenodd" clip-rule="evenodd" d="M33.6206 0.439941C33.5768 0.484111 30.7777 1.97507 30.4094 4.28404C30.1201 6.0978 33.2461 8.55548 35.293 10.8076L31.6523 10.8075C31.567 10.689 31.4278 10.6118 31.2709 10.6117C31.0122 10.6117 30.8032 10.8216 30.8041 11.0805C30.805 11.3394 31.0154 11.5493 31.2741 11.5493C31.431 11.5493 31.5697 11.472 31.6543 11.3534H35.7694C36.1997 11.8712 36.5459 12.3741 36.758 12.8509H33.0997C33.0143 12.7323 32.8752 12.6551 32.7183 12.6551C32.4596 12.6551 32.2505 12.865 32.2514 13.1239C32.2523 13.3828 32.4628 13.5926 32.7215 13.5927C32.8784 13.5927 33.0171 13.5154 33.1016 13.3967H36.9421C37.0825 14.0359 36.9198 14.6156 36.3151 15.1057C36.6224 14.9737 41.0927 12.8769 37.2428 9.61591C34.5178 7.15732 30.5653 3.85789 33.6206 0.439941Z" fill="url(#paint2_linear)"/>
<path fill-rule="evenodd" clip-rule="evenodd" d="M33.6206 0.439941C33.5768 0.484111 30.7777 1.97507 30.4094 4.28404C30.1201 6.0978 33.2461 8.55548 35.293 10.8076L31.6523 10.8075C31.567 10.689 31.4278 10.6118 31.2709 10.6117C31.0122 10.6117 30.8032 10.8216 30.8041 11.0805C30.805 11.3394 31.0154 11.5493 31.2741 11.5493C31.431 11.5493 31.5697 11.472 31.6543 11.3534H35.7694C36.1997 11.8712 36.5459 12.3741 36.758 12.8509H33.0997C33.0143 12.7323 32.8752 12.6551 32.7183 12.6551C32.4596 12.6551 32.2505 12.865 32.2514 13.1239C32.2523 13.3828 32.4628 13.5926 32.7215 13.5927C32.8784 13.5927 33.0171 13.5154 33.1016 13.3967H36.9421C37.0825 14.0359 36.9198 14.6156 36.3151 15.1057C36.6224 14.9737 41.0927 12.8769 37.2428 9.61591C34.5178 7.15732 30.5653 3.85789 33.6206 0.439941Z" fill="url(#paint3_linear)"/>
<path fill-rule="evenodd" clip-rule="evenodd" d="M35.9674 6.58545C46.4796 6.6169 66.0001 13.6291 66.0001 26.6073C66.0001 31.4555 63.3309 35.9137 58.8622 39.4373C56.1609 41.5674 52.8016 43.3563 48.9769 44.6831C44.2432 46.3255 38.796 47.2607 33 47.2607C24.1456 47.2607 16.1058 45.0781 10.179 41.5259C3.90622 37.7664 0 32.4722 0 26.6073C0 24.026 0.637829 21.7268 1.80768 19.7171C2.96228 17.7334 4.63534 16.0311 6.72473 14.6178C12.4518 10.7433 20.9209 9.45554 26.8762 10.7555C16.5885 12.0472 8.40677 16.5244 5.69179 22.2744C5.00744 23.6525 4.64101 25.1057 4.64101 26.6073C4.64101 35.4507 17.3378 42.6198 33 42.6198C41.4786 42.6198 49.0883 40.5189 54.285 37.1888C58.688 34.3674 61.3591 30.6635 61.3591 26.6073C61.3591 25.6267 61.1855 24.6648 60.8681 23.7267C58.3879 15.4724 43.6529 7.73198 35.9674 6.58545Z" fill="url(#paint4_linear)"/>
<path fill-rule="evenodd" clip-rule="evenodd" d="M35.9688 6.58545C46.4809 6.6169 66.0014 13.6291 66.0014 26.6073C66.0014 31.4555 63.3323 35.9137 58.8636 39.4373L58.7485 39.5275L58.7364 39.5368L58.6326 39.6174L58.6085 39.6361L58.5158 39.7067L58.4793 39.7345L58.4597 39.7495L58.3657 39.8203L58.3494 39.8327L58.2801 39.8844L58.2185 39.9302L58.1612 39.9725L58.1393 39.9884L58.0476 40.0557L58.0414 40.0603L57.9539 40.1238L57.9207 40.1476L57.9085 40.1565L57.7994 40.2345L57.6855 40.3154L57.6774 40.3211L57.5545 40.407L57.4308 40.4926L57.4134 40.5047L57.3066 40.5778L57.2759 40.5987L57.1814 40.6625L57.1376 40.692L57.0556 40.7468L57.0411 40.7564L56.9649 40.807L56.8689 40.8702L56.8582 40.8772L56.8017 40.9141L56.7173 40.969L56.6736 40.997L56.6662 41.0018L56.5466 41.0784L56.5448 41.0796L56.4324 41.1509L56.4153 41.1616L56.2888 41.241L56.2849 41.2433L56.154 41.3245L56.1442 41.3306L56.0224 41.4051L55.9987 41.4196L55.89 41.4854L55.7849 41.5483L55.7569 41.5653L55.7053 41.5959L55.623 41.6445L55.5572 41.6833L55.4885 41.7234L55.4635 41.7379C55.2917 41.8378 55.1183 41.9365 54.9433 42.0343L54.8053 42.1107L54.8041 42.1115L54.6666 42.1868L54.5272 42.2623L54.4969 42.2787L54.3871 42.3374L54.3421 42.3614L54.2464 42.412L54.1197 42.4784L54.095 42.4913C53.9092 42.588 53.7217 42.6835 53.5327 42.7777L53.3962 42.8453L53.3879 42.8493C53.2914 42.897 53.1941 42.9442 53.0965 42.9912L53.0745 43.0018L52.9498 43.0614C52.6558 43.2012 52.3578 43.338 52.0562 43.4718L51.9239 43.5302L51.9053 43.5383C51.7565 43.6035 51.6064 43.6681 51.4557 43.7319L51.4482 43.7351L51.4194 43.7473L51.2946 43.7997L51.2498 43.8184L51.1404 43.8636L51.0792 43.8888L51.0505 43.9006L50.929 43.95L50.9081 43.9586L50.8302 43.9901L50.7362 44.0278L50.6742 44.0525L50.6345 44.0682C50.4913 44.125 50.3473 44.181 50.2026 44.2365L50.0443 44.2968C54.8773 40.0339 61.2199 33.8922 61.3571 26.8398C61.3591 26.7624 61.3604 26.685 61.3604 26.6073C61.3604 25.6267 61.1868 24.6648 60.8695 23.7267C60.6363 22.9512 60.3057 22.1944 59.8849 21.461C55.7306 14.101 42.9454 7.62616 35.9688 6.58545Z" fill="url(#paint5_linear)"/>
<path fill-rule="evenodd" clip-rule="evenodd" d="M11.8827 42.4786C11.2973 42.1731 10.729 41.8554 10.179 41.5258C3.90622 37.7663 0 32.4722 0 26.6072C0 24.026 0.637829 21.7267 1.80768 19.717C2.96228 17.7333 4.63534 16.0311 6.72473 14.6177C12.4518 10.7432 20.9209 9.45547 26.8762 10.7554C16.5885 12.0471 8.40677 16.5243 5.69179 22.2743C5.00744 23.6524 4.64101 25.1056 4.64101 26.6072C4.64101 32.3566 8.14652 38.3535 11.8827 42.4786Z" fill="#C4C4C4"/>
<path fill-rule="evenodd" clip-rule="evenodd" d="M11.8827 42.4786C11.2973 42.1731 10.729 41.8554 10.179 41.5258C3.90622 37.7663 0 32.4722 0 26.6072C0 24.026 0.637829 21.7267 1.80768 19.717C2.96228 17.7333 4.63534 16.0311 6.72473 14.6177C12.4518 10.7432 20.9209 9.45547 26.8762 10.7554C16.5885 12.0471 8.40677 16.5243 5.69179 22.2743C5.00744 23.6524 4.64101 25.1056 4.64101 26.6072C4.64101 32.3566 8.14652 38.3535 11.8827 42.4786Z" fill="url(#paint6_linear)"/>
<defs>
<linearGradient id="paint0_linear" x1="33.4712" y1="26.9695" x2="32.438" y2="8.04696" gradientUnits="userSpaceOnUse">
<stop stop-color="#303981"/>
<stop offset="0.219608" stop-color="#088FC7"/>
<stop offset="0.568627" stop-color="#0C86C1"/>
<stop offset="1" stop-color="#303981"/>
</linearGradient>
<linearGradient id="paint1_linear" x1="33.8325" y1="35.8754" x2="33.8325" y2="32.5632" gradientUnits="userSpaceOnUse">
<stop stop-color="#3E7C30"/>
<stop offset="1" stop-color="#6AB436"/>
</linearGradient>
<linearGradient id="paint2_linear" x1="34.6834" y1="13.4182" x2="32.2822" y2="1.09159" gradientUnits="userSpaceOnUse">
<stop stop-color="#303981"/>
<stop offset="0.219608" stop-color="#088FC7"/>
<stop offset="0.568627" stop-color="#0C86C1"/>
<stop offset="1" stop-color="#303981"/>
</linearGradient>
<linearGradient id="paint3_linear" x1="31.5412" y1="4.82017" x2="34.9998" y2="8.15648" gradientUnits="userSpaceOnUse">
<stop stop-color="#50A739"/>
<stop offset="1" stop-color="#7DBC5A"/>
</linearGradient>
<linearGradient id="paint4_linear" x1="33.6979" y1="42.5804" x2="37.8943" y2="9.93242" gradientUnits="userSpaceOnUse">
<stop stop-color="#303981"/>
<stop offset="0.219608" stop-color="#088FC7"/>
<stop offset="0.568627" stop-color="#0C86C1"/>
<stop offset="1" stop-color="#303981"/>
</linearGradient>
<linearGradient id="paint5_linear" x1="51.3027" y1="39.9575" x2="46.7782" y2="7.69276" gradientUnits="userSpaceOnUse">
<stop stop-color="#303981"/>
<stop offset="0.219608" stop-color="#088FC7"/>
<stop offset="0.568627" stop-color="#0C86C1"/>
<stop offset="1" stop-color="#303981"/>
</linearGradient>
<linearGradient id="paint6_linear" x1="3.67789" y1="19.8867" x2="10.8621" y2="29.9725" gradientUnits="userSpaceOnUse">
<stop stop-color="#50A739"/>
<stop offset="1" stop-color="#7DBC5A"/>
</linearGradient>
</defs>
</svg>
