<svg width="106" height="75" viewBox="0 0 106 75" fill="none" xmlns="http://www.w3.org/2000/svg">
<path d="M20.6114 42.0489H22.4536C23.1674 42.0489 23.7142 41.8605 24.0937 41.4882C24.4732 41.112 24.6648 40.607 24.6648 39.9768C24.6648 39.3848 24.4559 38.9008 24.0414 38.5315C23.6237 38.1591 23.1358 37.9745 22.5753 37.9745H20.6114V42.0489ZM49.9573 11.6562C49.8871 11.727 45.4033 14.1152 44.8132 17.8139C44.3176 20.9227 50.0837 25.211 53.2956 29.0143C54.019 29.8709 54.6037 30.7029 54.9624 31.4913C54.8323 31.7436 54.7066 32.0244 54.5863 32.3333L52.5629 38.7056H52.5211L50.6408 32.8798C50.303 31.9048 49.9651 31.1701 49.6307 30.6757C49.2968 30.1778 48.7605 29.9303 48.0255 29.9303C47.2454 29.9303 46.6884 30.1462 46.3541 30.5782C46.1626 30.7869 46.0232 31.0202 45.9293 31.2885C45.8389 31.5532 45.7447 31.9432 45.6437 32.4587L43.9722 42.0905C43.9443 42.2645 43.9165 42.4526 43.8923 42.6512C43.8677 42.8461 43.8433 43.0376 43.8226 43.2222C43.8015 43.4069 43.791 43.5078 43.7875 43.5286C43.8294 43.9813 44.0001 44.3505 44.3065 44.643C44.6095 44.9321 44.9924 45.0783 45.4557 45.0783C46.5177 45.0783 47.1585 44.3261 47.3778 42.8182L48.3391 36.2194H48.3843L50.721 43.6156C50.8672 44.1207 51.0829 44.4933 51.3651 44.7266C51.6471 44.9599 52.065 45.0783 52.622 45.0783C53.1481 45.0539 53.538 44.9182 53.7957 44.6638C54.05 44.4131 54.2449 44.0649 54.3772 43.6156L56.6789 36.2194H56.721L57.8283 43.3232C57.8875 43.8456 58.0684 44.2669 58.3646 44.5906C58.6639 44.9147 59.0608 45.0783 59.5624 45.0783C60.0569 45.0783 60.4713 44.9215 60.8019 44.6117C61.1328 44.3016 61.2964 43.9118 61.2964 43.445C61.2964 43.3024 61.279 43.083 61.2406 42.7869C61.2025 42.4876 61.1781 42.2959 61.1678 42.2125L59.3743 31.9745C58.8341 28.8592 53.727 24.7036 51.5742 22.3897H56.7195C56.8562 22.5797 57.0792 22.7035 57.3306 22.7035C57.7451 22.7035 58.0799 22.3677 58.0784 21.9529C58.0769 21.538 57.74 21.2017 57.3255 21.2017C57.0741 21.2017 56.8522 21.3254 56.7165 21.5155H50.798C50.1487 20.7454 49.5751 19.9518 49.1317 19.1392H55.8125C55.9492 19.329 56.1722 19.4529 56.4236 19.4529C56.8379 19.4529 57.1726 19.1164 57.1712 18.7017C57.1699 18.2872 56.8327 17.9509 56.4185 17.9509C56.167 17.9509 55.945 18.0747 55.8095 18.2649H48.7103C48.3865 17.4868 48.1965 16.693 48.1855 15.8879H52.5308C52.6676 16.0779 52.8906 16.2019 53.142 16.2019C53.5563 16.2019 53.8911 15.8654 53.8896 15.4512C53.8884 15.0362 53.5511 14.7 53.1369 14.7C52.8855 14.7 52.6635 14.8236 52.5279 15.0137H48.2454C48.4149 13.9095 48.9466 12.787 49.9573 11.6562ZM71.8366 44.9817V43.475C71.8296 43.4044 71.8259 43.3318 71.8259 43.2572C71.8259 43.1462 71.8345 43.0393 71.8516 42.9371C71.9511 42.2232 72.5507 41.6637 73.2822 41.6266C73.4421 41.6016 73.6148 41.5891 73.8004 41.5891H74.3367L78.3135 31.48C78.5607 30.9193 78.8148 30.5224 79.0726 30.2891C79.3303 30.0489 79.6925 29.9303 80.1557 29.9303C80.5978 29.9303 80.946 30.0523 81.2001 30.2925C81.4579 30.5294 81.6912 30.9124 81.9105 31.4347L85.9918 41.5891H86.4724C86.6432 41.5891 86.8059 41.6008 86.9602 41.6245H86.9629C87.7478 41.6245 88.3994 42.2269 88.4776 42.9923C88.4881 43.0647 88.4952 43.1403 88.4991 43.2187C88.4991 43.31 88.4945 43.3973 88.4857 43.4812V44.9817C88.4857 45.8183 87.7995 46.5045 86.9629 46.5045H86.7044C85.8678 46.5045 85.1816 45.8193 85.1816 44.9817V44.9739H75.1408V44.9817C75.1408 45.8183 74.4546 46.5045 73.6179 46.5045H73.3595C72.5228 46.5045 71.8366 45.8193 71.8366 44.9817ZM19.0443 30.0558H25.3891C25.7825 30.0558 26.11 30.2091 26.3746 30.5155C26.6426 30.8254 26.7785 31.2119 26.7785 31.682C26.7785 32.166 26.6463 32.5594 26.3781 32.8624C26.1134 33.1654 25.7857 33.3151 25.3891 33.3151H20.6114V34.9658H23.3901C24.3688 34.9658 25.2149 35.1817 25.9359 35.6136C26.6565 36.0417 27.2102 36.6338 27.5897 37.3895C27.9729 38.1451 28.175 38.9947 28.1957 39.9418C28.1957 40.8889 27.9938 41.7529 27.5934 42.5328C27.1931 43.3127 26.5903 43.9292 25.786 44.3887C24.9816 44.8485 24.0098 45.0783 22.8678 45.0783H18.9817C18.4074 45.0783 17.9719 44.9076 17.6758 44.5628C17.3765 44.2148 17.2266 43.8316 17.2266 43.4102V31.8945C17.2266 31.0237 17.519 30.4666 18.1043 30.2125C18.1111 30.2091 18.1182 30.2054 18.125 30.202C18.1355 30.1986 18.1424 30.1952 18.1495 30.1952C18.1601 30.1915 18.1706 30.1878 18.1773 30.1846C18.184 30.1813 18.1913 30.1776 18.1982 30.1741C18.3615 30.0942 18.5464 30.0558 18.7415 30.0558C18.7831 30.0558 18.8215 30.0523 18.8563 30.0489C18.8736 30.0489 18.8878 30.0523 18.9051 30.0558C18.912 30.0558 18.9191 30.0558 18.926 30.0558C18.9365 30.0558 18.9469 30.0558 18.9573 30.0558C18.9678 30.0558 18.9783 30.0558 18.9922 30.0558C19.0096 30.0558 19.0269 30.0558 19.0443 30.0558ZM29.35 43.452V31.8979C29.35 31.2746 29.486 30.7938 29.7611 30.4632C30.036 30.1325 30.4123 29.9548 30.8963 29.9303C31.4605 29.9303 31.9094 30.0802 32.2403 30.3832C32.5712 30.6825 32.7348 31.1041 32.7348 31.6436V38.8311L39.0238 30.996C39.2816 30.6581 39.5356 30.3969 39.79 30.2125C40.044 30.0245 40.361 29.9303 40.7371 29.9303C41.2595 29.9303 41.6774 30.1081 41.9872 30.4597C42.2973 30.8148 42.4504 31.2644 42.4504 31.8109V43.3232C42.4504 43.8419 42.3008 44.2634 42.0046 44.5873C41.7053 44.9147 41.27 45.0783 40.6953 45.0783C40.1626 45.0783 39.7587 44.9042 39.4801 44.5594C39.205 44.2111 39.0656 43.8003 39.0656 43.3232V36.2194H39.0238L32.7348 44.051C32.4076 44.3852 32.122 44.6325 31.8781 44.7963C31.6309 44.9565 31.3316 45.0365 30.9799 45.0365C30.4818 45.0365 30.0849 44.8692 29.7924 44.5386C29.4962 44.2077 29.35 43.8456 29.35 43.452ZM62.4211 36.0489V31.7656C62.4211 31.198 62.5884 30.7696 62.926 30.4842C63.2638 30.1986 63.6365 30.0558 64.0474 30.0558H69.4031C69.8837 30.0558 70.2701 30.1952 70.5591 30.4737C70.8447 30.7522 70.9876 31.1423 70.9876 31.6436C70.9876 32.0826 70.8621 32.4479 70.6081 32.7441C70.3503 33.0402 69.9495 33.1899 69.4031 33.1899H65.8059V35.885H69.1523C69.661 35.885 70.0544 36.0384 70.3363 36.3414C70.6186 36.6442 70.7611 37.0168 70.7611 37.4555C70.7611 37.8839 70.6149 38.253 70.3224 38.5699C70.0336 38.8831 69.6431 39.0399 69.1523 39.0399H65.8059V41.8189H69.4031C69.9916 41.8189 70.4234 41.9652 70.702 42.2543C70.9771 42.5467 71.1165 42.9018 71.1165 43.3232C71.1165 43.8071 70.9771 44.2009 70.6985 44.5002C70.42 44.8032 69.9879 44.9528 69.4031 44.9528H64.1762C63.6122 44.9528 63.1767 44.7893 62.8737 44.4618C62.5707 44.138 62.4211 43.7411 62.4211 43.2779V36.0489ZM82.3179 41.5891L80.1557 35.8887L78 41.5891H82.3179Z" fill="white"/>
<path d="M35.2119 59.7816C34.2408 59.7384 33.7567 59.2284 33.7567 58.2602V55.7185H31.46C30.6502 55.7185 29.9472 55.5398 29.3506 55.1855C28.7541 54.8282 28.296 54.3382 27.979 53.713C27.6649 53.0876 27.4977 52.3846 27.4805 51.6007C27.4805 50.8169 27.6476 50.1023 27.979 49.4568C28.3104 48.8113 28.8089 48.3013 29.4746 47.9209C30.1402 47.5405 30.9471 47.3503 31.8893 47.3503H35.1052C35.1398 47.3503 35.1744 47.3503 35.209 47.3503H38.4249C39.3672 47.3503 40.174 47.5405 40.8397 47.9209C41.5054 48.3013 42.0038 48.8113 42.3352 49.4568C42.6666 50.1023 42.8338 50.8169 42.8338 51.6007C42.8164 52.3846 42.6493 53.0876 42.3323 53.713C42.0153 54.3382 41.5601 54.8282 40.9636 55.1855C40.3671 55.5398 39.664 55.7185 38.8542 55.7185H36.5576V58.2602C36.5576 59.2284 36.108 59.7384 35.2119 59.7816ZM36.5576 49.8573V53.2288H38.1799C38.6439 53.2288 39.0502 53.0761 39.3931 52.7678C39.7389 52.4624 39.9118 52.0618 39.9118 51.5719C39.9118 51.0504 39.7533 50.6353 39.4392 50.3241C39.1222 50.0129 38.6698 49.8573 38.0791 49.8573H36.5576ZM33.7624 53.2288L33.7567 49.8573H32.2352C31.6444 49.8573 31.192 50.0129 30.875 50.3241C30.561 50.6353 30.4025 51.0504 30.4025 51.5719C30.4025 52.0618 30.5753 52.4624 30.9183 52.7678C31.264 53.0761 31.6703 53.2288 32.1343 53.2288H33.7567H33.7624ZM43.2458 57.2228L46.2024 49.2493C46.6576 47.8575 47.3723 47.1602 48.3463 47.1602C49.3087 47.1602 50.0291 47.7998 50.5075 49.0764L53.5995 57.3438C53.7637 57.874 53.8444 58.2948 53.8444 58.6059C53.8444 58.9892 53.7176 59.2918 53.464 59.5166C53.2105 59.7384 52.8877 59.8508 52.493 59.8508C51.7898 59.8508 51.3057 59.4128 51.0435 58.5367L50.6948 57.3438H46.1159L45.7356 58.5367C45.6059 58.9575 45.4243 59.2745 45.1938 59.4906C44.9632 59.7067 44.6463 59.8162 44.2485 59.8162C43.3726 59.8162 42.9346 59.4243 42.9346 58.6376C42.9346 58.2659 43.0383 57.7962 43.2458 57.2228ZM46.9112 54.7503H49.8475L48.4328 50.255H48.3952L46.9112 54.7503ZM54.5216 48.8689C54.5216 48.5202 54.6455 48.2033 54.8904 47.918C55.1382 47.6327 55.4984 47.4886 55.9739 47.4886H59.1898C60.135 47.4886 60.9389 47.6788 61.6045 48.0592C62.2703 48.4396 62.7688 48.9496 63.1001 49.5951C63.4315 50.2406 63.5987 50.9552 63.5987 51.739C63.5813 52.5229 63.4143 53.226 63.0973 53.8512C62.7832 54.4765 62.325 54.9665 61.7285 55.3238C61.1319 55.6782 60.4318 55.8568 59.622 55.8568H57.3225V58.4302C57.3225 58.92 57.1871 59.2918 56.9133 59.5424C56.6396 59.7931 56.2908 59.9199 55.8702 59.9199C54.9711 59.8739 54.5216 59.3668 54.5216 58.3956V48.8689ZM57.3225 49.9957V53.3672H58.9478C59.4117 53.3672 59.8151 53.2144 60.1609 52.9061C60.5039 52.6007 60.6767 52.2001 60.6767 51.7102C60.6767 51.1886 60.5182 50.7737 60.2041 50.4625C59.89 50.1513 59.4375 49.9957 58.8468 49.9957H57.3225ZM65.2873 49.4769C65.3709 49.0505 65.4486 48.7277 65.5236 48.5087C65.6014 48.2868 65.7167 48.0938 65.8752 47.9209C66.1518 47.5635 66.6129 47.385 67.2584 47.385C67.8664 47.385 68.3101 47.5895 68.5867 48.0016C68.8635 48.4107 69.1429 49.0188 69.4224 49.8256L70.9785 54.6465H71.0131L72.6873 49.3732C72.9323 48.7451 73.2031 48.258 73.4942 47.9093C73.7882 47.5606 74.2059 47.385 74.7477 47.385C75.2462 47.385 75.6669 47.5405 76.0099 47.8546C76.3498 48.1687 76.563 48.5779 76.6495 49.0764L78.1335 57.5484C78.1422 57.6175 78.1624 57.776 78.1941 58.0238C78.2258 58.2688 78.2402 58.4504 78.2402 58.5685C78.2402 58.9547 78.1048 59.2774 77.8311 59.5338C77.5572 59.7903 77.2143 59.9199 76.8051 59.9199C76.3903 59.9199 76.0617 59.7845 75.8139 59.5166C75.5689 59.2485 75.4191 58.8999 75.3701 58.4676L74.4538 52.5891H74.4191L72.5144 58.7096C72.4049 59.0814 72.2436 59.3696 72.0332 59.5771C71.82 59.7874 71.4972 59.8998 71.0621 59.9199C70.601 59.9199 70.2553 59.822 70.0219 59.6289C69.7885 59.4358 69.6098 59.1275 69.4887 58.7096L67.5552 52.5891H67.5177L66.7224 58.0498C66.5408 59.2975 66.0106 59.9199 65.1317 59.9199C64.7484 59.9199 64.4315 59.799 64.1808 59.5597C63.9272 59.3177 63.786 59.0122 63.7514 58.6376C63.7542 58.6203 63.7629 58.5367 63.7802 58.384C63.7975 58.2313 63.8176 58.0728 63.8378 57.9115C63.858 57.7473 63.8811 57.5916 63.9041 57.4476L65.2873 49.4769Z" fill="white"/>
<path fill-rule="evenodd" clip-rule="evenodd" d="M53.8537 0C53.7835 0.0707525 49.2997 2.45906 48.7097 6.15769C48.2463 9.06308 53.2538 12.9999 56.5326 16.6074L50.7007 16.6073C50.564 16.4175 50.3412 16.2938 50.0898 16.2937C49.6754 16.2937 49.3406 16.6299 49.342 17.0447C49.3434 17.4594 49.6806 17.7957 50.0949 17.7956C50.3463 17.7956 50.5684 17.6717 50.7039 17.4818H57.2957C57.9849 18.3112 58.5396 19.1168 58.8793 19.8806H53.0192C52.8824 19.6906 52.6596 19.5669 52.4082 19.5669C51.9939 19.567 51.659 19.9032 51.6605 20.3178C51.6618 20.7325 51.999 21.0687 52.4134 21.0688C52.6647 21.0688 52.8869 20.945 53.0223 20.7549H59.1742C59.3991 21.7788 59.1385 22.7074 58.1699 23.4925C58.6622 23.2811 65.8228 19.9222 59.6559 14.6986C55.2908 10.7603 48.9595 5.47507 53.8537 0Z" fill="white"/>
<path fill-rule="evenodd" clip-rule="evenodd" d="M57.6146 9.84375C74.4536 9.89414 105.723 21.1267 105.723 41.9159C105.723 49.682 101.447 56.8234 94.2888 62.4676C89.9616 65.8798 84.5806 68.7454 78.4539 70.8708C70.8713 73.5016 62.1455 74.9997 52.8613 74.9997C38.6778 74.9997 25.7992 71.5034 16.3052 65.8133C6.25721 59.7911 0 51.3106 0 41.9159C0 37.7811 1.02171 34.098 2.89564 30.8788C4.74515 27.7011 7.42515 24.9744 10.772 22.7104C19.946 16.504 33.5123 14.4412 43.0518 16.5235C26.5725 18.5926 13.4664 25.7645 9.11742 34.9752C8.02119 37.1827 7.43423 39.5105 7.43423 41.9159C7.43423 56.0817 27.7727 67.5657 52.8613 67.5657C66.4427 67.5657 78.6324 64.2002 86.9568 58.8659C94.0098 54.3464 98.2884 48.4132 98.2884 41.9159C98.2884 40.3451 98.0103 38.8042 97.5019 37.3015C93.5291 24.0794 69.9256 11.6803 57.6146 9.84375Z" fill="white"/>
<path fill-rule="evenodd" clip-rule="evenodd" d="M57.6172 9.84375C74.4562 9.89414 105.725 21.1267 105.725 41.9159C105.725 49.682 101.45 56.8234 94.2914 62.4676L94.1071 62.6121L94.0878 62.6271L93.9214 62.7562L93.8828 62.7861L93.7344 62.8993L93.6759 62.9438L93.6444 62.9677L93.4939 63.0812L93.4678 63.101L93.3568 63.1839L93.258 63.2573L93.1662 63.325L93.1313 63.3504L92.9844 63.4583L92.9743 63.4656L92.8342 63.5673L92.7811 63.6055L92.7615 63.6197L92.5867 63.7446L92.4043 63.8743L92.3913 63.8833L92.1944 64.021L91.9964 64.1581L91.9685 64.1776L91.7973 64.2946L91.7482 64.3281L91.5967 64.4304L91.5266 64.4776L91.3953 64.5654L91.372 64.5807L91.25 64.6617L91.0962 64.763L91.0791 64.7742L90.9885 64.8333L90.8533 64.9212L90.7834 64.9662L90.7715 64.9738L90.58 65.0965L90.5771 65.0985L90.397 65.2127L90.3696 65.2298L90.1669 65.357L90.1607 65.3607L89.951 65.4908L89.9354 65.5005L89.7402 65.6198L89.7023 65.6431L89.5281 65.7485L89.3599 65.8493L89.3149 65.8764L89.2323 65.9255L89.1004 66.0033L88.995 66.0654L88.885 66.1298L88.8449 66.1529C88.5697 66.3129 88.2919 66.4711 88.0117 66.6276L87.7907 66.7501L87.7887 66.7514L87.5684 66.8719L87.3451 66.993L87.2967 67.0191L87.1208 67.1133L87.0487 67.1517L86.8953 67.2327L86.6924 67.339L86.6528 67.3598C86.3552 67.5146 86.0549 67.6677 85.7521 67.8186L85.5335 67.9269L85.5202 67.9332C85.3655 68.0096 85.2097 68.0852 85.0534 68.1604L85.0182 68.1775L84.8184 68.2729C84.3475 68.4969 83.87 68.716 83.387 68.9303L83.1751 69.024L83.1452 69.0369C82.9068 69.1413 82.6664 69.2448 82.4251 69.347L82.413 69.3521L82.3669 69.3717L82.1671 69.4556L82.0952 69.4856L81.9201 69.558L81.822 69.5984L81.776 69.6172L81.5813 69.6964L81.5479 69.7102L81.4231 69.7605L81.2725 69.821L81.1732 69.8605L81.1096 69.8857C80.8802 69.9767 80.6496 70.0664 80.4177 70.1552L80.1642 70.2519C87.906 63.4233 98.0658 53.5852 98.2856 42.2884C98.2888 42.1643 98.291 42.0404 98.291 41.9159C98.291 40.3451 98.0129 38.8042 97.5045 37.3015C97.1311 36.0593 96.6015 34.847 95.9274 33.6722C89.2728 21.8826 68.7927 11.5108 57.6172 9.84375Z" fill="white"/>
<path fill-rule="evenodd" clip-rule="evenodd" d="M19.0344 67.3388C18.0967 66.8494 17.1863 66.3406 16.3052 65.8126C6.25721 59.7904 0 51.3099 0 41.9152C0 37.7804 1.02171 34.0973 2.89564 30.8781C4.74515 27.7004 7.42515 24.9737 10.772 22.7097C19.946 16.5034 33.5123 14.4405 43.0518 16.5229C26.5725 18.592 13.4664 25.7638 9.11742 34.9745C8.02119 37.182 7.43423 39.5098 7.43423 41.9152C7.43423 51.1248 13.0495 60.7309 19.0344 67.3388Z" fill="white"/>
</svg>
