<svg width="173" height="134" viewBox="0 0 173 134" fill="none" xmlns="http://www.w3.org/2000/svg">
<path d="M134.076 97.9759L127.835 108.227L86.0859 81.948L92.3571 71.6973L134.076 97.9759Z" fill="#5D7A7F"/>
<path opacity="0.18" d="M86.7344 82.3328L111.23 83.5771L92.9761 72.082C92.9761 72.1117 90.0613 78.1851 86.7344 82.3328Z" fill="black"/>
<path opacity="0.51" d="M50.107 97.3537C75.6683 97.3537 96.3898 76.3167 96.3898 50.3663C96.3898 24.4159 75.6683 3.37891 50.107 3.37891C24.5457 3.37891 3.82422 24.4159 3.82422 50.3663C3.82422 76.3167 24.5457 97.3537 50.107 97.3537Z" fill="#F2F2F2"/>
<path opacity="0.18" d="M67.5372 87.1314C59.2051 89.5608 50.6081 90.1237 42.011 88.9682C33.7967 87.8721 24.9936 85.3538 18.1041 80.4951C15.2188 78.5101 12.5985 76.14 10.4492 73.3848C16.4848 83.5762 26.289 91.4568 38.5369 94.6861C57.1736 99.5745 76.1048 92.2271 87.0278 77.5621C81.2866 81.9764 74.3972 85.1168 67.5372 87.1314Z" fill="black"/>
<path d="M171.556 126.623L168.847 131.038C167.051 133.941 163.283 134.86 160.427 133.052L117.648 106.122C117.177 105.826 117.029 105.204 117.324 104.73L125.42 91.4865C125.715 91.0125 126.333 90.8644 126.804 91.1607L169.583 118.091C172.469 119.898 173.352 123.72 171.556 126.623Z" fill="#153E49"/>
<path d="M134.372 95.4575L125.245 110.448L123.449 109.323L132.606 94.3613L134.372 95.4575Z" fill="#054EDB"/>
<path d="M138.583 98.241L129.427 113.202L127.66 112.106L136.817 97.1152L138.583 98.241Z" fill="#054EDB"/>
<path d="M92.2704 76.9115C77.8438 100.524 47.1947 107.812 23.9356 93.1764C0.705844 78.541 -6.478 47.4333 7.94857 23.8211C22.3751 0.208926 53.0242 -7.07916 76.2834 7.55626C99.5425 22.1917 106.697 53.329 92.2704 76.9115ZM11.776 26.2209C-1.32565 47.7 5.21047 75.9635 26.3498 89.2657C47.4891 102.568 75.3412 95.9317 88.4429 74.4822C101.545 53.0327 95.0085 24.7692 73.8986 11.4669C52.7592 -1.86492 24.9071 4.77138 11.776 26.2209Z" fill="#153E49"/>
<path opacity="0.61" d="M55.1737 10.0732C48.5492 8.38452 41.3065 9.30293 35.0943 12.0582C29.7358 14.4283 24.4951 18.9611 22.9936 24.8864C22.7581 25.7752 23.8474 26.8121 24.6129 26.0122C28.2343 22.22 32.0617 18.9019 36.9197 16.828C42.4547 14.4579 48.3137 14.7246 54.1432 15.0208C56.8813 15.169 58.0295 10.7843 55.1737 10.0732Z" fill="white"/>
<path d="M49.8739 96.7598C24.6421 96.7598 4.12109 75.9325 4.12109 50.3057C4.12109 24.6789 24.6127 3.85156 49.8739 3.85156C75.1057 3.85156 95.6267 24.6789 95.6267 50.3057C95.6267 75.9325 75.1057 96.7598 49.8739 96.7598ZM49.8739 4.71073C25.1132 4.71073 4.97491 25.1529 4.97491 50.2761C4.97491 75.3992 25.1132 95.8414 49.8739 95.8414C74.6346 95.8414 94.7729 75.3992 94.7729 50.2761C94.7435 25.1529 74.6052 4.71073 49.8739 4.71073Z" fill="#054EDB"/>
</svg>
