<svg width="18" height="21" viewBox="0 0 18 21" fill="none" xmlns="http://www.w3.org/2000/svg">
<path d="M15.6173 3.98837C14.1522 1.75581 11.7336 0.5 9.01268 0.5C6.315 0.5 3.8964 1.75581 2.38477 3.98837C0.873145 6.17442 0.524308 8.96512 1.45454 11.407C1.71035 12.0581 2.1057 12.7326 2.61733 13.3372L8.50105 20.2674C8.64058 20.407 8.78012 20.5 8.98942 20.5C9.19872 20.5 9.33826 20.407 9.47779 20.2674L15.3848 13.3372C15.8964 12.7326 16.315 12.0814 16.5476 11.407C17.4778 8.96512 17.129 6.17442 15.6173 3.98837ZM9.01268 12.2209C7.01268 12.2209 5.36152 10.5698 5.36152 8.56977C5.36152 6.56977 7.01268 4.9186 9.01268 4.9186C11.0127 4.9186 12.6638 6.56977 12.6638 8.56977C12.6638 10.5698 11.0359 12.2209 9.01268 12.2209Z" fill="#8B96B1"/>
</svg>
