<svg width="20" height="20" viewBox="0 0 20 20" fill="none" xmlns="http://www.w3.org/2000/svg">
<path d="M18.0589 16.7452L14.9117 13.6073C15.9271 12.3137 16.4781 10.7163 16.4761 9.07177C16.4761 7.6072 16.0418 6.17551 15.2281 4.95776C14.4144 3.74001 13.2579 2.79089 11.9048 2.23043C10.5517 1.66996 9.06283 1.52331 7.62639 1.80904C6.18996 2.09476 4.87051 2.80002 3.8349 3.83563C2.79929 4.87124 2.09403 6.19069 1.8083 7.62712C1.52258 9.06356 1.66922 10.5525 2.22969 11.9056C2.79016 13.2586 3.73928 14.4151 4.95703 15.2288C6.17478 16.0425 7.60647 16.4768 9.07104 16.4768C10.7156 16.4788 12.313 15.9279 13.6066 14.9125L16.7445 18.0596C16.8305 18.1464 16.9329 18.2152 17.0457 18.2622C17.1585 18.3092 17.2795 18.3334 17.4017 18.3334C17.5239 18.3334 17.6449 18.3092 17.7577 18.2622C17.8705 18.2152 17.9728 18.1464 18.0589 18.0596C18.1456 17.9736 18.2145 17.8712 18.2615 17.7584C18.3085 17.6456 18.3327 17.5246 18.3327 17.4024C18.3327 17.2802 18.3085 17.1592 18.2615 17.0464C18.2145 16.9337 18.1456 16.8313 18.0589 16.7452ZM3.51727 9.07177C3.51727 7.97334 3.843 6.89958 4.45325 5.98627C5.06351 5.07295 5.93089 4.36111 6.94571 3.94076C7.96052 3.52041 9.0772 3.41043 10.1545 3.62472C11.2319 3.83901 12.2214 4.36796 12.9981 5.14467C13.7749 5.92138 14.3038 6.91096 14.5181 7.98829C14.7324 9.06561 14.6224 10.1823 14.2021 11.1971C13.7817 12.2119 13.0699 13.0793 12.1565 13.6896C11.2432 14.2998 10.1695 14.6255 9.07104 14.6255C7.59809 14.6255 6.18547 14.0404 5.14393 12.9989C4.1024 11.9573 3.51727 10.5447 3.51727 9.07177Z" fill="#8B96B1"/>
</svg>
