<svg width="62" height="62" viewBox="0 0 62 62" fill="none" xmlns="http://www.w3.org/2000/svg">
<path d="M56.6125 39.1372L48.2425 30.6897C48.2036 30.6411 48.1529 30.6031 48.0953 30.5794C48.0377 30.5557 47.975 30.5469 47.9131 30.5541C47.8506 30.5564 47.7892 30.5714 47.7326 30.598C47.676 30.6246 47.6254 30.6624 47.5837 30.7091L42.0037 36.6184C41.643 37.0021 41.2078 37.3082 40.7248 37.5181C40.2418 37.728 39.721 37.8372 39.1944 37.8391C38.6677 37.8372 38.147 37.728 37.664 37.5181C37.1809 37.3082 36.7458 37.0021 36.385 36.6184L24.4113 23.8503C24.326 23.7741 24.2156 23.7319 24.1012 23.7319C23.9869 23.7319 23.8765 23.7741 23.7913 23.8503L5.1525 38.3816L2.75 35.2622L21.3113 20.7309C22.1632 20.0686 23.2321 19.749 24.3078 19.8351C25.3834 19.9211 26.388 20.4066 27.1238 21.1959L39.0781 33.9641L44.6194 28.0547C45.0159 27.6273 45.4952 27.2849 46.0281 27.0484C46.561 26.812 47.1364 26.6863 47.7194 26.6791C48.3025 26.6639 48.8824 26.7697 49.4226 26.9898C49.9628 27.2099 50.4516 27.5395 50.8581 27.9578L59.2281 36.4053L56.6125 39.1372Z" fill="#EAF1FF"/>
<path d="M52.4675 60.0625H9.5325C7.51818 60.0625 5.58636 59.2623 4.16202 57.838C2.73769 56.4136 1.9375 54.4818 1.9375 52.4675V9.5325C1.9375 7.51818 2.73769 5.58636 4.16202 4.16202C5.58636 2.73769 7.51818 1.9375 9.5325 1.9375H52.4675C54.4818 1.9375 56.4136 2.73769 57.838 4.16202C59.2623 5.58636 60.0625 7.51818 60.0625 9.5325V52.4675C60.0625 54.4818 59.2623 56.4136 57.838 57.838C56.4136 59.2623 54.4818 60.0625 52.4675 60.0625ZM9.5325 5.8125C8.54589 5.8125 7.5997 6.20443 6.90206 6.90206C6.20443 7.5997 5.8125 8.54589 5.8125 9.5325V52.4675C5.8125 52.956 5.90872 53.4398 6.09567 53.8911C6.28262 54.3424 6.55663 54.7525 6.90206 55.0979C7.2475 55.4434 7.65759 55.7174 8.10892 55.9043C8.56025 56.0913 9.04398 56.1875 9.5325 56.1875H52.4675C52.956 56.1875 53.4398 56.0913 53.8911 55.9043C54.3424 55.7174 54.7525 55.4434 55.0979 55.0979C55.4434 54.7525 55.7174 54.3424 55.9043 53.8911C56.0913 53.4398 56.1875 52.956 56.1875 52.4675V9.5325C56.1875 9.04398 56.0913 8.56025 55.9043 8.10892C55.7174 7.65759 55.4434 7.2475 55.0979 6.90206C54.7525 6.55663 54.3424 6.28262 53.8911 6.09567C53.4398 5.90872 52.956 5.8125 52.4675 5.8125H9.5325Z" fill="#EAF1FF"/>
<path d="M39.3906 22.9209C41.5307 22.9209 43.2656 21.186 43.2656 19.0459C43.2656 16.9058 41.5307 15.1709 39.3906 15.1709C37.2505 15.1709 35.5156 16.9058 35.5156 19.0459C35.5156 21.186 37.2505 22.9209 39.3906 22.9209Z" fill="#EAF1FF"/>
<path d="M3.875 37.7812L22.3394 22.9205L25.7494 22.5137L36.9287 34.4487C36.9287 34.4487 38.8662 37.103 40.5131 35.2818L46.0737 29.3724C46.0737 29.3724 47.1781 26.9505 49.5419 29.3724C51.9056 31.7943 58.125 39.7187 58.125 39.7187L57.9894 53.7268C57.9894 53.7268 57.4081 58.1249 51.7119 58.1249C46.0156 58.1249 9.08687 57.5243 9.08687 57.5243C9.08687 57.5243 3.875 58.803 3.875 52.4674C3.875 46.1318 3.875 37.7812 3.875 37.7812Z" fill="#EAF1FF"/>
</svg>
