<svg width="14" height="24" viewBox="0 0 14 24" fill="none" xmlns="http://www.w3.org/2000/svg">
<path d="M6.99863 12.676C3.65642 12.676 0.921875 9.94143 0.921875 6.59922C0.921875 3.257 3.65642 0.522461 6.99863 0.522461C10.3408 0.522461 13.0754 3.257 13.0754 6.59922C13.0754 9.94143 10.3408 12.676 6.99863 12.676ZM6.99863 3.40892C5.25156 3.40892 3.80833 4.85215 3.80833 6.59922C3.80833 8.34628 5.25156 9.78952 6.99863 9.78952C8.7457 9.78952 10.1889 8.34628 10.1889 6.59922C10.1889 4.85215 8.7457 3.40892 6.99863 3.40892Z" fill="white"/>
<path d="M13.5332 13.2832C13.0015 12.5996 12.09 12.5236 11.4063 12.9794C11.4063 12.9794 9.73523 14.1948 7.00069 14.1948C4.26615 14.1948 2.59504 12.9794 2.59504 12.9794C1.91141 12.4477 0.999891 12.5996 0.468175 13.2832C-0.0635411 13.9669 0.0883776 14.8784 0.772013 15.4101C0.847972 15.4861 2.44312 16.7014 5.1017 17.0812L1.07585 21.183C0.468176 21.7907 0.468176 22.7782 1.07585 23.3099C1.37969 23.6137 1.75949 23.7656 2.13928 23.7656C2.51908 23.7656 2.89888 23.6137 3.20272 23.3099L7.00069 19.436L10.7987 23.3099C11.1025 23.6137 11.4823 23.7656 11.8621 23.7656C12.2419 23.7656 12.6217 23.6137 12.9255 23.3099C13.5332 22.7022 13.5332 21.7907 12.9255 21.183L8.89967 17.0812C11.5583 16.6255 13.1534 15.4101 13.2294 15.4101C13.913 14.8784 14.0649 13.8909 13.5332 13.2832Z" fill="white"/>
</svg>
