<svg width="12" height="18" viewBox="0 0 12 18" fill="none" xmlns="http://www.w3.org/2000/svg">
<path d="M5.99933 9.74088C8.68918 9.74088 10.8698 7.56031 10.8698 4.87042C10.8698 2.18053 8.68921 0 5.99933 0C3.30944 0 1.12891 2.18057 1.12891 4.87046C1.13221 7.55894 3.31084 9.73757 5.99933 9.74088ZM5.99933 2.2479C7.44771 2.2479 8.62188 3.42204 8.62188 4.87046C8.62188 6.31887 7.44774 7.49301 5.99933 7.49301C4.55091 7.49301 3.37677 6.31887 3.37677 4.87046C3.37677 3.42204 4.55094 2.2479 5.99933 2.2479Z" fill="#8B96B1"/>
<path d="M10.7695 12.0477C11.2988 11.699 11.6178 11.1079 11.6185 10.4741C11.6259 9.94814 11.329 9.46512 10.8565 9.23405C10.3709 8.99152 9.7897 9.04614 9.35785 9.37493C7.35642 10.8341 4.64183 10.8341 2.6404 9.37493C2.20789 9.04786 1.62769 8.99331 1.14179 9.23405C0.669413 9.46509 0.372445 9.94758 0.379013 10.4734C0.380137 11.1071 0.698952 11.698 1.22798 12.0469C1.90671 12.4983 2.64584 12.8514 3.42344 13.0959C3.55533 13.1369 3.69143 13.1749 3.83182 13.2098L1.56745 15.424C0.973442 16.0004 0.959076 16.9491 1.53542 17.5431C2.11176 18.1371 3.06047 18.1515 3.65452 17.5752C3.66688 17.5631 3.67903 17.551 3.69097 17.5385L5.99883 15.1497L8.31118 17.543C8.88702 18.1375 9.83578 18.1526 10.4302 17.5767C11.0247 17.0009 11.0398 16.0521 10.464 15.4577C10.4519 15.4452 10.4397 15.433 10.4272 15.421L8.16654 13.2091C8.30689 13.1731 8.44352 13.1349 8.57639 13.0944C9.35315 12.8509 10.0916 12.4985 10.7695 12.0477Z" fill="#8B96B1"/>
</svg>
