<svg width="68" height="68" viewBox="0 0 68 68" fill="none" xmlns="http://www.w3.org/2000/svg">
<circle cx="34" cy="34" r="29.5" fill="white" stroke="#1D9F22" stroke-width="3"/>
<path d="M47.9932 40.1585C47.232 39.771 43.4539 37.9165 42.7481 37.6674C42.0423 37.4044 41.5303 37.2799 41.0182 38.0549C40.5061 38.8299 39.0392 40.546 38.5825 41.0718C38.1396 41.5839 37.6829 41.6531 36.9218 41.2656C32.4102 39.0098 29.4486 37.2384 26.4731 32.1317C25.6843 30.7754 27.2619 30.8723 28.7289 27.9384C28.978 27.4263 28.8535 26.9835 28.6597 26.596C28.466 26.2085 26.9298 22.4303 26.2932 20.8942C25.6704 19.3995 25.0338 19.6071 24.5633 19.5794C24.1204 19.5518 23.6084 19.5518 23.0963 19.5518C22.5843 19.5518 21.7539 19.7455 21.0481 20.5067C20.3423 21.2817 18.3633 23.1361 18.3633 26.9143C18.3633 30.6924 21.1173 34.346 21.491 34.858C21.8785 35.3701 26.9021 43.1201 34.6106 46.4553C39.482 48.5589 41.3919 48.7388 43.8276 48.379C45.3084 48.1576 48.3669 46.5245 49.0035 44.7254C49.6401 42.9263 49.6401 41.3902 49.4463 41.0718C49.2664 40.7259 48.7544 40.5321 47.9932 40.1585Z" fill="#1D9F22"/>
</svg>
