<svg width="20" height="20" viewBox="0 0 20 20" fill="none" xmlns="http://www.w3.org/2000/svg">
<path d="M17.8187 14.7937C18.0134 14.9891 18.1594 15.2276 18.2448 15.4899C18.3302 15.7522 18.3526 16.0309 18.3103 16.3035C18.2679 16.576 18.1619 16.8348 18.001 17.0588C17.84 17.2828 17.6285 17.4658 17.3837 17.5929C15.9846 18.3406 14.3545 18.5318 12.8204 18.1279C8.74871 17.1029 2.89621 11.2504 1.87121 7.17869C1.46732 5.64457 1.65843 4.01446 2.40621 2.61536C2.53329 2.37052 2.71624 2.15906 2.94025 1.99809C3.16426 1.83712 3.42303 1.73116 3.69561 1.6888C3.96818 1.64645 4.2469 1.66887 4.5092 1.75427C4.77149 1.83967 5.00999 1.98564 5.20538 2.18036L6.94288 3.91702C7.19344 4.16507 7.36299 4.4832 7.42919 4.82951C7.49538 5.17581 7.45512 5.53405 7.31371 5.85702C7.15897 6.21939 6.93924 6.55039 6.66538 6.83369C4.67871 8.82036 11.1795 15.3212 13.1654 13.3337C13.4487 13.0589 13.78 12.8383 14.1429 12.6829C14.4658 12.5412 14.8241 12.5008 15.1705 12.567C15.5168 12.6332 15.835 12.8029 16.0829 13.0537L17.8187 14.7937Z" fill="#8B96B1"/>
</svg>
