<svg width="41" height="41" viewBox="0 0 41 41" fill="none" xmlns="http://www.w3.org/2000/svg">
<path d="M20.4995 2.17578C24.663 2.17578 28.656 3.82975 31.6001 6.77382C34.5442 9.71789 36.1982 13.7109 36.1982 17.8745C36.1982 24.3737 31.2443 31.1835 21.546 38.4572C21.2441 38.6836 20.8769 38.806 20.4995 38.806C20.1221 38.806 19.7548 38.6836 19.4529 38.4572C9.75459 31.1835 4.80078 24.3737 4.80078 17.8745C4.80078 13.7109 6.45474 9.71789 9.39882 6.77382C12.3429 3.82975 16.3359 2.17578 20.4995 2.17578ZM20.4995 12.6416C19.1116 12.6416 17.7806 13.1929 16.7993 14.1743C15.8179 15.1556 15.2666 16.4866 15.2666 17.8745C15.2666 19.2623 15.8179 20.5933 16.7993 21.5747C17.7806 22.556 19.1116 23.1074 20.4995 23.1074C21.8873 23.1074 23.2183 22.556 24.1997 21.5747C25.181 20.5933 25.7324 19.2623 25.7324 17.8745C25.7324 16.4866 25.181 15.1556 24.1997 14.1743C23.2183 13.1929 21.8873 12.6416 20.4995 12.6416Z" fill="black"/>
<path d="M20.4995 2.17578C24.663 2.17578 28.656 3.82975 31.6001 6.77382C34.5442 9.71789 36.1982 13.7109 36.1982 17.8745C36.1982 24.3737 31.2443 31.1835 21.546 38.4572C21.2441 38.6836 20.8769 38.806 20.4995 38.806C20.1221 38.806 19.7548 38.6836 19.4529 38.4572C9.75459 31.1835 4.80078 24.3737 4.80078 17.8745C4.80078 13.7109 6.45474 9.71789 9.39882 6.77382C12.3429 3.82975 16.3359 2.17578 20.4995 2.17578ZM20.4995 12.6416C19.1116 12.6416 17.7806 13.1929 16.7993 14.1743C15.8179 15.1556 15.2666 16.4866 15.2666 17.8745C15.2666 19.2623 15.8179 20.5933 16.7993 21.5747C17.7806 22.556 19.1116 23.1074 20.4995 23.1074C21.8873 23.1074 23.2183 22.556 24.1997 21.5747C25.181 20.5933 25.7324 19.2623 25.7324 17.8745C25.7324 16.4866 25.181 15.1556 24.1997 14.1743C23.2183 13.1929 21.8873 12.6416 20.4995 12.6416Z" fill="url(#paint0_radial)"/>
<path d="M20.4995 2.17578C24.663 2.17578 28.656 3.82975 31.6001 6.77382C34.5442 9.71789 36.1982 13.7109 36.1982 17.8745C36.1982 24.3737 31.2443 31.1835 21.546 38.4572C21.2441 38.6836 20.8769 38.806 20.4995 38.806C20.1221 38.806 19.7548 38.6836 19.4529 38.4572C9.75459 31.1835 4.80078 24.3737 4.80078 17.8745C4.80078 13.7109 6.45474 9.71789 9.39882 6.77382C12.3429 3.82975 16.3359 2.17578 20.4995 2.17578ZM20.4995 12.6416C19.1116 12.6416 17.7806 13.1929 16.7993 14.1743C15.8179 15.1556 15.2666 16.4866 15.2666 17.8745C15.2666 19.2623 15.8179 20.5933 16.7993 21.5747C17.7806 22.556 19.1116 23.1074 20.4995 23.1074C21.8873 23.1074 23.2183 22.556 24.1997 21.5747C25.181 20.5933 25.7324 19.2623 25.7324 17.8745C25.7324 16.4866 25.181 15.1556 24.1997 14.1743C23.2183 13.1929 21.8873 12.6416 20.4995 12.6416Z" fill="url(#paint1_radial)"/>
<defs>
<radialGradient id="paint0_radial" cx="0" cy="0" r="1" gradientUnits="userSpaceOnUse" gradientTransform="translate(10.1416 7.98411) rotate(63.2749) scale(34.5486 34.5185)">
<stop stop-color="#303981"/>
<stop offset="1" stop-color="#0666BE"/>
</radialGradient>
<radialGradient id="paint1_radial" cx="0" cy="0" r="1" gradientUnits="userSpaceOnUse" gradientTransform="translate(14.6732 11.2437) rotate(78.6901) scale(24.2069 23.8688)">
<stop offset="0.0625" stop-color="#7DBC5A"/>
<stop offset="1" stop-color="#50A739"/>
</radialGradient>
</defs>
</svg>
