<svg width="41" height="41" viewBox="0 0 41 41" fill="none" xmlns="http://www.w3.org/2000/svg">
<path d="M32.3072 6.06671C29.1756 2.9351 24.9282 1.17578 20.4995 1.17578C16.0707 1.17578 11.8233 2.9351 8.69171 6.06671C5.5601 9.19832 3.80078 13.4457 3.80078 17.8745C3.80078 24.8855 9.11946 31.9571 18.8529 39.2572C19.3279 39.6135 19.9057 39.806 20.4995 39.806C21.0932 39.806 21.671 39.6135 22.146 39.2572C31.8795 31.9571 37.1982 24.8855 37.1982 17.8745C37.1982 13.4457 35.4388 9.19832 32.3072 6.06671ZM17.5064 14.8814C18.3002 14.0875 19.3768 13.6416 20.4995 13.6416C21.6221 13.6416 22.6988 14.0875 23.4926 14.8814C24.2864 15.6752 24.7324 16.7518 24.7324 17.8745C24.7324 18.9971 24.2864 20.0738 23.4926 20.8676C22.6988 21.6614 21.6221 22.1074 20.4995 22.1074C19.3768 22.1074 18.3002 21.6614 17.5064 20.8676C16.7125 20.0738 16.2666 18.9971 16.2666 17.8745C16.2666 16.7518 16.7125 15.6752 17.5064 14.8814Z" fill="black"/>
<path d="M32.3072 6.06671C29.1756 2.9351 24.9282 1.17578 20.4995 1.17578C16.0707 1.17578 11.8233 2.9351 8.69171 6.06671C5.5601 9.19832 3.80078 13.4457 3.80078 17.8745C3.80078 24.8855 9.11946 31.9571 18.8529 39.2572C19.3279 39.6135 19.9057 39.806 20.4995 39.806C21.0932 39.806 21.671 39.6135 22.146 39.2572C31.8795 31.9571 37.1982 24.8855 37.1982 17.8745C37.1982 13.4457 35.4388 9.19832 32.3072 6.06671ZM17.5064 14.8814C18.3002 14.0875 19.3768 13.6416 20.4995 13.6416C21.6221 13.6416 22.6988 14.0875 23.4926 14.8814C24.2864 15.6752 24.7324 16.7518 24.7324 17.8745C24.7324 18.9971 24.2864 20.0738 23.4926 20.8676C22.6988 21.6614 21.6221 22.1074 20.4995 22.1074C19.3768 22.1074 18.3002 21.6614 17.5064 20.8676C16.7125 20.0738 16.2666 18.9971 16.2666 17.8745C16.2666 16.7518 16.7125 15.6752 17.5064 14.8814Z" fill="url(#paint0_radial)"/>
<path d="M32.3072 6.06671C29.1756 2.9351 24.9282 1.17578 20.4995 1.17578C16.0707 1.17578 11.8233 2.9351 8.69171 6.06671C5.5601 9.19832 3.80078 13.4457 3.80078 17.8745C3.80078 24.8855 9.11946 31.9571 18.8529 39.2572C19.3279 39.6135 19.9057 39.806 20.4995 39.806C21.0932 39.806 21.671 39.6135 22.146 39.2572C31.8795 31.9571 37.1982 24.8855 37.1982 17.8745C37.1982 13.4457 35.4388 9.19832 32.3072 6.06671ZM17.5064 14.8814C18.3002 14.0875 19.3768 13.6416 20.4995 13.6416C21.6221 13.6416 22.6988 14.0875 23.4926 14.8814C24.2864 15.6752 24.7324 16.7518 24.7324 17.8745C24.7324 18.9971 24.2864 20.0738 23.4926 20.8676C22.6988 21.6614 21.6221 22.1074 20.4995 22.1074C19.3768 22.1074 18.3002 21.6614 17.5064 20.8676C16.7125 20.0738 16.2666 18.9971 16.2666 17.8745C16.2666 16.7518 16.7125 15.6752 17.5064 14.8814Z" stroke="white" stroke-width="2"/>
<defs>
<radialGradient id="paint0_radial" cx="0" cy="0" r="1" gradientUnits="userSpaceOnUse" gradientTransform="translate(4.80078 -3.04846) rotate(63.509) scale(46.8048 46.7641)">
<stop stop-color="#8490EF"/>
<stop offset="1" stop-color="#0666BE"/>
</radialGradient>
</defs>
</svg>
