<svg width="20" height="20" viewBox="0 0 20 20" fill="none" xmlns="http://www.w3.org/2000/svg">
<path d="M15.832 9.16683H10.832V4.16683C10.832 3.94582 10.7442 3.73385 10.588 3.57757C10.4317 3.42129 10.2197 3.3335 9.9987 3.3335C9.77768 3.3335 9.56572 3.42129 9.40944 3.57757C9.25316 3.73385 9.16536 3.94582 9.16536 4.16683V9.16683H4.16536C3.94435 9.16683 3.73239 9.25463 3.57611 9.41091C3.41983 9.56719 3.33203 9.77915 3.33203 10.0002C3.33203 10.2212 3.41983 10.4331 3.57611 10.5894C3.73239 10.7457 3.94435 10.8335 4.16536 10.8335H9.16536V15.8335C9.16536 16.0545 9.25316 16.2665 9.40944 16.4228C9.56572 16.579 9.77768 16.6668 9.9987 16.6668C10.2197 16.6668 10.4317 16.579 10.588 16.4228C10.7442 16.2665 10.832 16.0545 10.832 15.8335V10.8335H15.832C16.053 10.8335 16.265 10.7457 16.4213 10.5894C16.5776 10.4331 16.6654 10.2212 16.6654 10.0002C16.6654 9.77915 16.5776 9.56719 16.4213 9.41091C16.265 9.25463 16.053 9.16683 15.832 9.16683Z" fill="white"/>
</svg>
