<svg width="20" height="20" viewBox="0 0 20 20" fill="none" xmlns="http://www.w3.org/2000/svg">
<path fill-rule="evenodd" clip-rule="evenodd" d="M0 10C0 4.46341 4.46341 0 10 0C15.5366 0 20 4.46341 20 10C20 15.5366 15.5366 20 10 20C4.46341 20 0 15.5366 0 10ZM9.30216 10.3654C9.14537 10.7482 9.06698 11.2623 9.06698 11.908H10.8378L10.8655 11.486C10.9162 11.0341 11.1168 10.6398 11.4673 10.3031L12.0276 9.77051C12.4657 9.34625 12.7724 8.96118 12.9476 8.61532C13.1228 8.26484 13.2104 7.89361 13.2104 7.50163C13.2104 6.63927 12.9407 5.9729 12.4011 5.50252C11.8616 5.02753 11.103 4.79004 10.1253 4.79004C9.1569 4.79004 8.39138 5.03906 7.82878 5.53711C7.27078 6.03516 6.98717 6.72458 6.97795 7.60539H8.98397C8.99319 7.23646 9.09926 6.94824 9.30216 6.74072C9.50968 6.52859 9.78407 6.42253 10.1253 6.42253C10.8447 6.42253 11.2044 6.8122 11.2044 7.59155C11.2044 7.8498 11.1353 8.09652 10.9969 8.33171C10.8586 8.56228 10.5796 8.86434 10.1599 9.23787C9.74487 9.6068 9.45896 9.98264 9.30216 10.3654ZM9.17765 13.2707C8.97013 13.469 8.86637 13.7226 8.86637 14.0316C8.86637 14.3359 8.96783 14.5873 9.17074 14.7856C9.37825 14.9839 9.65034 15.083 9.98698 15.083C10.3236 15.083 10.5934 14.9839 10.7963 14.7856C11.0038 14.5873 11.1076 14.3359 11.1076 14.0316C11.1076 13.7226 11.0015 13.469 10.7894 13.2707C10.5819 13.0678 10.3144 12.9663 9.98698 12.9663C9.65956 12.9663 9.38978 13.0678 9.17765 13.2707Z" fill="#CDDAF1"/>
</svg>
