<svg width="20" height="20" viewBox="0 0 20 20" fill="none" xmlns="http://www.w3.org/2000/svg">
<path d="M4.9987 17.5013C5.91917 17.5013 6.66536 16.7551 6.66536 15.8346C6.66536 14.9142 5.91917 14.168 4.9987 14.168C4.07822 14.168 3.33203 14.9142 3.33203 15.8346C3.33203 16.7551 4.07822 17.5013 4.9987 17.5013Z" stroke="#054EDB" stroke-width="2" stroke-linecap="round" stroke-linejoin="round"/>
<path d="M14.9987 5.83333C15.9192 5.83333 16.6654 5.08714 16.6654 4.16667C16.6654 3.24619 15.9192 2.5 14.9987 2.5C14.0782 2.5 13.332 3.24619 13.332 4.16667C13.332 5.08714 14.0782 5.83333 14.9987 5.83333Z" stroke="#054EDB" stroke-width="2" stroke-linecap="round" stroke-linejoin="round"/>
<path d="M9.9974 15.8346H13.7474C14.5209 15.8346 15.2628 15.5273 15.8098 14.9804C16.3568 14.4334 16.6641 13.6915 16.6641 12.918C16.6641 12.1444 16.3568 11.4026 15.8098 10.8556C15.2628 10.3086 14.5209 10.0013 13.7474 10.0013H7.08073C6.30718 10.0013 5.56532 9.69401 5.01833 9.14703C4.47135 8.60005 4.16406 7.85818 4.16406 7.08464C4.16406 6.31109 4.47135 5.56922 5.01833 5.02224C5.56532 4.47526 6.30718 4.16797 7.08073 4.16797H9.9974" stroke="#054EDB" stroke-width="2" stroke-linecap="round" stroke-linejoin="round"/>
</svg>
