<svg width="24" height="24" viewBox="0 0 24 24" fill="none" xmlns="http://www.w3.org/2000/svg">
<g clip-path="url(#clip0)">
<path d="M10.25 8.5H1C0.448 8.5 0 8.948 0 9.5V14.5C0 15.052 0.448 15.5 1 15.5H10.25C10.802 15.5 11.25 15.052 11.25 14.5V9.5C11.25 8.948 10.802 8.5 10.25 8.5Z" fill="#054EDB"/>
<path d="M10.25 0H1C0.448 0 0 0.448 0 1V6C0 6.552 0.448 7 1 7H10.25C10.802 7 11.25 6.552 11.25 6V1C11.25 0.448 10.802 0 10.25 0Z" fill="#054EDB"/>
<path d="M0 18V23C0 23.552 0.448 24 1 24H10.25C10.802 24 11.25 23.552 11.25 23V18C11.25 17.448 10.802 17 10.25 17H1C0.448 17 0 17.448 0 18Z" fill="#054EDB"/>
<path d="M23 0H13.75C13.198 0 12.75 0.448 12.75 1V6C12.75 6.552 13.198 7 13.75 7H23C23.552 7 24 6.552 24 6V1C24 0.448 23.552 0 23 0Z" fill="#054EDB"/>
<path d="M13.75 15.5H23C23.552 15.5 24 15.052 24 14.5V9.5C24 8.948 23.552 8.5 23 8.5H13.75C13.198 8.5 12.75 8.948 12.75 9.5V14.5C12.75 15.052 13.198 15.5 13.75 15.5Z" fill="#054EDB"/>
<path d="M13.75 24H23C23.552 24 24 23.552 24 23V18C24 17.448 23.552 17 23 17H13.75C13.198 17 12.75 17.448 12.75 18V23C12.75 23.552 13.198 24 13.75 24Z" fill="#054EDB"/>
</g>
<defs>
<clipPath id="clip0">
<rect width="24" height="24" fill="white"/>
</clipPath>
</defs>
</svg>
