<svg width="24" height="24" viewBox="0 0 24 24" fill="none" xmlns="http://www.w3.org/2000/svg">
<g clip-path="url(#clip0)">
<path d="M0 13.75V23C0 23.552 0.448 24 1 24H6C6.552 24 7 23.552 7 23V13.75C7 13.198 6.552 12.75 6 12.75H1C0.448 12.75 0 13.198 0 13.75Z" fill="#8B96B1"/>
<path d="M6 0H1C0.448 0 0 0.448 0 1V10.25C0 10.802 0.448 11.25 1 11.25H6C6.552 11.25 7 10.802 7 10.25V1C7 0.448 6.552 0 6 0Z" fill="#8B96B1"/>
<path d="M15.5 10.25V1C15.5 0.448 15.052 0 14.5 0H9.5C8.948 0 8.5 0.448 8.5 1V10.25C8.5 10.802 8.948 11.25 9.5 11.25H14.5C15.052 11.25 15.5 10.802 15.5 10.25Z" fill="#8B96B1"/>
<path d="M18 24H23C23.552 24 24 23.552 24 23V13.75C24 13.198 23.552 12.75 23 12.75H18C17.448 12.75 17 13.198 17 13.75V23C17 23.552 17.448 24 18 24Z" fill="#8B96B1"/>
<path d="M8.5 13.75V23C8.5 23.552 8.948 24 9.5 24H14.5C15.052 24 15.5 23.552 15.5 23V13.75C15.5 13.198 15.052 12.75 14.5 12.75H9.5C8.948 12.75 8.5 13.198 8.5 13.75Z" fill="#8B96B1"/>
<path d="M23 0H18C17.448 0 17 0.448 17 1V10.25C17 10.802 17.448 11.25 18 11.25H23C23.552 11.25 24 10.802 24 10.25V1C24 0.448 23.552 0 23 0Z" fill="#8B96B1"/>
</g>
<defs>
<clipPath id="clip0">
<rect width="24" height="24" fill="white"/>
</clipPath>
</defs>
</svg>
