<svg width="20" height="21" viewBox="0 0 20 21" fill="none" xmlns="http://www.w3.org/2000/svg">
<g clip-path="url(#clip0)">
<path d="M15.3018 10.25C14.0682 11.8248 12.1785 12.8222 10 12.8222C7.87402 12.8222 5.93176 11.8248 4.69816 10.25C1.83727 12.061 0 15.2106 0 18.7014C0 19.6463 0.734908 20.355 1.65354 20.355H18.3202C19.2651 20.3812 20 19.5938 20 18.7014C20 15.2106 18.1627 12.0348 15.3018 10.25Z" fill="#CDDAF1"/>
<path d="M10.0006 0.643555C7.00845 0.643555 4.59375 3.0845 4.59375 6.05038C4.59375 9.04251 7.0347 11.4572 10.0006 11.4572C12.9665 11.4572 15.4074 9.06875 15.4074 6.05038C15.4074 3.03201 12.9927 0.643555 10.0006 0.643555Z" fill="#CDDAF1"/>
</g>
<defs>
<clipPath id="clip0">
<rect width="20" height="20" fill="white" transform="translate(0 0.5)"/>
</clipPath>
</defs>
</svg>
