<svg width="54" height="60" viewBox="0 0 54 60" fill="none" xmlns="http://www.w3.org/2000/svg">
<path d="M27 30C35.5219 30 42.4286 23.2852 42.4286 15C42.4286 6.71484 35.5219 0 27 0C18.4781 0 11.5714 6.71484 11.5714 15C11.5714 23.2852 18.4781 30 27 30ZM37.8 33.75H35.7871C33.1112 34.9453 30.1339 35.625 27 35.625C23.8661 35.625 20.9009 34.9453 18.2129 33.75H16.2C7.25625 33.75 0 40.8047 0 49.5V54.375C0 57.4805 2.59152 60 5.78571 60H48.2143C51.4085 60 54 57.4805 54 54.375V49.5C54 40.8047 46.7438 33.75 37.8 33.75Z" fill="#D4E3FF"/>
</svg>
