<svg width="17" height="16" viewBox="0 0 17 16" fill="none" xmlns="http://www.w3.org/2000/svg">
<g clip-path="url(#clip0)">
<path d="M8.45648 12.4546H9.39761C9.39761 12.4546 9.68212 12.4231 9.82683 12.2665C9.96072 12.1228 9.95579 11.8531 9.95579 11.8531C9.95579 11.8531 9.93709 10.59 10.5238 10.404C11.1017 10.2209 11.844 11.6247 12.6305 12.1651C13.2251 12.5737 13.677 12.4841 13.677 12.4841L15.7808 12.4546C15.7808 12.4546 16.8814 12.3867 16.3596 11.5213C16.3173 11.4504 16.0554 10.8814 14.7953 9.7119C13.4762 8.48725 13.6534 8.68611 15.2423 6.56856C16.21 5.27893 16.5969 4.49138 16.4758 4.15469C16.3606 3.83376 15.6489 3.91843 15.6489 3.91843L13.2822 3.93221C13.2822 3.93221 13.107 3.90858 12.9761 3.98635C12.8491 4.06314 12.7674 4.24034 12.7674 4.24034C12.7674 4.24034 12.3923 5.23857 11.8922 6.08717C10.8379 7.87788 10.4155 7.97238 10.2433 7.86114C9.84258 7.60223 9.943 6.8196 9.943 6.26437C9.943 4.52878 10.2058 3.80521 9.4301 3.61817C9.17217 3.55615 8.98316 3.5148 8.32456 3.50791C7.47991 3.49905 6.76421 3.51087 6.3596 3.70874C6.08987 3.84066 5.88215 4.13501 6.00914 4.15174C6.16567 4.17241 6.52007 4.24723 6.7081 4.50319C6.95126 4.83298 6.9424 5.57525 6.9424 5.57525C6.9424 5.57525 7.08219 7.61798 6.61655 7.87197C6.2966 8.04622 5.85852 7.69083 4.91837 6.06551C4.43698 5.23365 4.07273 4.31319 4.07273 4.31319C4.07273 4.31319 4.00284 4.1419 3.87781 4.05034C3.72621 3.9391 3.51357 3.90366 3.51357 3.90366L1.26312 3.91744C1.26312 3.91744 0.925452 3.92729 0.801411 4.07397C0.691153 4.2049 0.792551 4.47464 0.792551 4.47464C0.792551 4.47464 2.55471 8.59652 4.5492 10.6747C6.37929 12.5796 8.45648 12.4546 8.45648 12.4546Z" fill="#8B96B1"/>
</g>
<defs>
<clipPath id="clip0">
<rect width="15.75" height="15.75" fill="white" transform="translate(0.75 0.125)"/>
</clipPath>
</defs>
</svg>
