<svg width="23" height="23" viewBox="0 0 23 23" fill="none" xmlns="http://www.w3.org/2000/svg">
<path fill-rule="evenodd" clip-rule="evenodd" d="M19.5528 3.8389C17.4675 1.75111 14.6942 0.600834 11.7396 0.599609C5.6515 0.599609 0.69666 5.55432 0.694211 11.6441C0.693394 13.5908 1.20194 15.4911 2.16856 17.1661L0.601562 22.8896L6.4569 21.3536C8.07029 22.2337 9.88666 22.6975 11.7351 22.6981H11.7398C17.8272 22.6981 22.7826 17.7429 22.7849 11.6529C22.7861 8.7015 21.6383 5.92654 19.5528 3.8389ZM11.7396 20.8327H11.7358C10.0886 20.832 8.47299 20.3893 7.06327 19.553L6.72818 19.354L3.25353 20.2655L4.18097 16.8778L3.96261 16.5305C3.04361 15.0688 2.55833 13.3794 2.55915 11.6447C2.56105 6.58311 6.67948 2.46509 11.7433 2.46509C14.1954 2.46591 16.5005 3.42205 18.2337 5.15733C19.9669 6.89262 20.9209 9.19916 20.9201 11.6522C20.9179 16.7143 16.7998 20.8327 11.7396 20.8327ZM16.7753 13.957C16.4994 13.8188 15.1424 13.1513 14.8894 13.0591C14.6366 12.967 14.4524 12.9211 14.2686 13.1973C14.0845 13.4735 13.5557 14.0952 13.3946 14.2793C13.2336 14.4635 13.0728 14.4866 12.7967 14.3484C12.5207 14.2103 11.6315 13.9188 10.5772 12.9786C9.75687 12.2468 9.20302 11.343 9.04194 11.0668C8.88113 10.7904 9.04058 10.6554 9.16302 10.5036C9.46178 10.1326 9.76095 9.74362 9.85292 9.55955C9.94502 9.37534 9.8989 9.21413 9.82979 9.07604C9.76095 8.93795 9.20901 7.57952 8.97909 7.02676C8.75488 6.48883 8.52754 6.56148 8.35803 6.55304C8.19722 6.54501 8.01315 6.54338 7.82908 6.54338C7.64514 6.54338 7.34611 6.61236 7.09306 6.88881C6.84015 7.16512 6.12726 7.8327 6.12726 9.19113C6.12726 10.5496 7.11619 11.8619 7.25414 12.0461C7.39209 12.2303 9.2003 15.0179 11.9687 16.2132C12.6272 16.4978 13.1412 16.6675 13.5421 16.7947C14.2033 17.0047 14.8048 16.9751 15.2804 16.9041C15.8107 16.8248 16.9131 16.2363 17.1433 15.5918C17.3732 14.947 17.3732 14.3945 17.3041 14.2793C17.2353 14.1642 17.0512 14.0952 16.7753 13.957Z" fill="white"/>
</svg>
