<svg width="24" height="24" viewBox="0 0 24 24" fill="none" xmlns="http://www.w3.org/2000/svg">
<path fill-rule="evenodd" clip-rule="evenodd" d="M20.5528 4.8389C18.4675 2.75111 15.6942 1.60083 12.7396 1.59961C6.6515 1.59961 1.69666 6.55432 1.69421 12.6441C1.69339 14.5908 2.20194 16.4911 3.16856 18.1661L1.60156 23.8896L7.4569 22.3536C9.07029 23.2337 10.8867 23.6975 12.7351 23.6981H12.7398C18.8272 23.6981 23.7826 18.7429 23.7849 12.6529C23.7861 9.7015 22.6383 6.92654 20.5528 4.8389ZM12.7396 21.8327H12.7358C11.0886 21.832 9.47299 21.3893 8.06327 20.553L7.72818 20.354L4.25353 21.2655L5.18097 17.8778L4.96261 17.5305C4.04361 16.0688 3.55833 14.3794 3.55915 12.6447C3.56105 7.58311 7.67948 3.46509 12.7433 3.46509C15.1954 3.46591 17.5005 4.42205 19.2337 6.15733C20.9669 7.89262 21.9209 10.1992 21.9201 12.6522C21.9179 17.7143 17.7998 21.8327 12.7396 21.8327ZM17.7753 14.957C17.4994 14.8188 16.1424 14.1513 15.8894 14.0591C15.6366 13.967 15.4524 13.9211 15.2686 14.1973C15.0845 14.4735 14.5557 15.0952 14.3946 15.2793C14.2336 15.4635 14.0728 15.4866 13.7967 15.3484C13.5207 15.2103 12.6315 14.9188 11.5772 13.9786C10.7569 13.2468 10.203 12.343 10.0419 12.0668C9.88113 11.7904 10.0406 11.6554 10.163 11.5036C10.4618 11.1326 10.761 10.7436 10.8529 10.5596C10.945 10.3753 10.8989 10.2141 10.8298 10.076C10.761 9.93795 10.209 8.57952 9.97909 8.02676C9.75488 7.48883 9.52754 7.56148 9.35803 7.55304C9.19722 7.54501 9.01315 7.54338 8.82908 7.54338C8.64514 7.54338 8.34611 7.61236 8.09306 7.88881C7.84015 8.16512 7.12726 8.8327 7.12726 10.1911C7.12726 11.5496 8.11619 12.8619 8.25414 13.0461C8.39209 13.2303 10.2003 16.0179 12.9687 17.2132C13.6272 17.4978 14.1412 17.6675 14.5421 17.7947C15.2033 18.0047 15.8048 17.9751 16.2804 17.9041C16.8107 17.8248 17.9131 17.2363 18.1433 16.5918C18.3732 15.947 18.3732 15.3945 18.3041 15.2793C18.2353 15.1642 18.0512 15.0952 17.7753 14.957Z" fill="#8B96B1"/>
</svg>
